<?xml version="1.0" encoding="UTF-8" standalone="no"?>
<svg xmlns="http://www.w3.org/2000/svg" version="1.1" viewBox="0 0 1071 327">
   <polyline fill="none" points="92,205 152,205 262,205 262,165 272,165" stroke="rgb(0, 0, 0)" stroke-linecap="square" stroke-width="3.0"/>
   <polyline fill="none" points="702,205 702,165 712,165" stroke="rgb(0, 0, 0)" stroke-linecap="square" stroke-width="3.0"/>
   <polyline fill="none" points="582,205 582,165 592,165" stroke="rgb(0, 0, 0)" stroke-linecap="square" stroke-width="3.0"/>
   <polyline fill="none" points="482,205 482,165 492,165" stroke="rgb(0, 0, 0)" stroke-linecap="square" stroke-width="3.0"/>
   <polyline fill="none" points="262,205 372,205 482,205 582,205 702,205 802,205 802,165 812,165" stroke="rgb(0, 0, 0)" stroke-linecap="square" stroke-width="3.0"/>
   <polyline fill="none" points="222,165 232,165 232,235 342,235" stroke="rgb(0, 0, 0)" stroke-linecap="square" stroke-width="3.0"/>
   <polyline fill="none" points="452,235 562,235" stroke="rgb(0, 0, 0)" stroke-linecap="square" stroke-width="3.0"/>
   <polyline fill="none" points="1012,165 1022,165 1022,235 892,235" stroke="rgb(0, 0, 0)" stroke-linecap="square" stroke-width="3.0"/>
   <polyline fill="none" points="332,165 342,165 342,235 452,235 452,165 442,165" stroke="rgb(0, 0, 0)" stroke-linecap="square" stroke-width="3.0"/>
   <polyline fill="none" points="372,205 372,165 382,165" stroke="rgb(0, 0, 0)" stroke-linecap="square" stroke-width="3.0"/>
   <polyline fill="none" points="152,205 152,165 162,165" stroke="rgb(0, 0, 0)" stroke-linecap="square" stroke-width="3.0"/>
   <polyline fill="none" points="92,235 232,235" stroke="rgb(0, 0, 0)" stroke-linecap="square" stroke-width="3.0"/>
   <polyline fill="none" points="772,165 782,165 782,235" stroke="rgb(0, 0, 0)" stroke-linecap="square" stroke-width="3.0"/>
   <polyline fill="none" points="952,165 932,165 932,205 802,205" stroke="rgb(0, 0, 0)" stroke-linecap="square" stroke-width="3.0"/>
   <polyline fill="none" points="652,165 662,165 662,235 782,235 892,235 892,165 872,165" stroke="rgb(0, 0, 0)" stroke-linecap="square" stroke-width="3.0"/>
   <polyline fill="none" points="552,165 562,165 562,235 662,235" stroke="rgb(0, 0, 0)" stroke-linecap="square" stroke-width="3.0"/>
   <polyline fill="none" points="432,125 442,125 472,125 472,275" stroke="rgb(0, 0, 0)" stroke-linecap="square" stroke-width="3.0"/>
   <ellipse cx="442.0" cy="125.0" fill="rgb(0, 0, 0)" rx="5.0" ry="5.0" stroke="none" stroke-width="3.0"/>
   <ellipse cx="232.0" cy="235.0" fill="rgb(0, 0, 0)" rx="5.0" ry="5.0" stroke="none" stroke-width="3.0"/>
   <ellipse cx="662.0" cy="235.0" fill="rgb(0, 0, 0)" rx="5.0" ry="5.0" stroke="none" stroke-width="3.0"/>
   <ellipse cx="482.0" cy="205.0" fill="rgb(0, 0, 0)" rx="5.0" ry="5.0" stroke="none" stroke-width="3.0"/>
   <ellipse cx="152.0" cy="205.0" fill="rgb(0, 0, 0)" rx="5.0" ry="5.0" stroke="none" stroke-width="3.0"/>
   <ellipse cx="582.0" cy="205.0" fill="rgb(0, 0, 0)" rx="5.0" ry="5.0" stroke="none" stroke-width="3.0"/>
   <ellipse cx="342.0" cy="235.0" fill="rgb(0, 0, 0)" rx="5.0" ry="5.0" stroke="none" stroke-width="3.0"/>
   <ellipse cx="262.0" cy="205.0" fill="rgb(0, 0, 0)" rx="5.0" ry="5.0" stroke="none" stroke-width="3.0"/>
   <ellipse cx="782.0" cy="235.0" fill="rgb(0, 0, 0)" rx="5.0" ry="5.0" stroke="none" stroke-width="3.0"/>
   <ellipse cx="452.0" cy="235.0" fill="rgb(0, 0, 0)" rx="5.0" ry="5.0" stroke="none" stroke-width="3.0"/>
   <ellipse cx="702.0" cy="205.0" fill="rgb(0, 0, 0)" rx="5.0" ry="5.0" stroke="none" stroke-width="3.0"/>
   <ellipse cx="372.0" cy="205.0" fill="rgb(0, 0, 0)" rx="5.0" ry="5.0" stroke="none" stroke-width="3.0"/>
   <ellipse cx="802.0" cy="205.0" fill="rgb(0, 0, 0)" rx="5.0" ry="5.0" stroke="none" stroke-width="3.0"/>
   <ellipse cx="892.0" cy="235.0" fill="rgb(0, 0, 0)" rx="5.0" ry="5.0" stroke="none" stroke-width="3.0"/>
   <ellipse cx="562.0" cy="235.0" fill="rgb(0, 0, 0)" rx="5.0" ry="5.0" stroke="none" stroke-width="3.0"/>
   <polyline fill="none" points="392,115 431,115" stroke="rgb(0, 0, 0)" stroke-linecap="square" stroke-width="2.0"/>
   <polyline fill="none" points="432,115 432,174" stroke="rgb(0, 0, 0)" stroke-linecap="square" stroke-width="2.0"/>
   <polyline fill="none" points="432,175 393,175" stroke="rgb(0, 0, 0)" stroke-linecap="square" stroke-width="2.0"/>
   <polyline fill="none" points="392,175 392,116" stroke="rgb(0, 0, 0)" stroke-linecap="square" stroke-width="2.0"/>
   <ellipse cx="412.0" cy="175.0" fill="rgb(0, 0, 0)" rx="2.0" ry="2.0" stroke="none" stroke-width="2.0"/>
   <text fill="rgb(128, 128, 128)" font-family="SansSerif" font-size="12" x="408.0" y="172.0">R</text>
   <ellipse cx="412.0" cy="115.0" fill="rgb(0, 0, 0)" rx="2.0" ry="2.0" stroke="none" stroke-width="2.0"/>
   <text fill="rgb(128, 128, 128)" font-family="SansSerif" font-size="12" x="408.0" y="130.0">S</text>
   <polyline fill="none" points="382,75 382,125 391,125" stroke="rgb(0, 0, 0)" stroke-linecap="square" stroke-width="3.0"/>
   <ellipse cx="382.0" cy="125.0" fill="rgb(0, 0, 0)" rx="2.0" ry="2.0" stroke="none" stroke-width="3.0"/>
   <text fill="rgb(0, 0, 0)" font-family="SansSerif" font-size="12" x="396.0" y="129.0">D</text>
   <polyline fill="none" points="393,161 400,165 393,169" stroke="rgb(0, 0, 0)" stroke-linecap="square" stroke-width="2.0"/>
   <polyline fill="none" points="382,165 391,165" stroke="rgb(0, 0, 0)" stroke-linecap="square" stroke-width="2.0"/>
   <ellipse cx="382.0" cy="165.0" fill="rgb(0, 0, 0)" rx="2.0" ry="2.0" stroke="none" stroke-width="2.0"/>
   <polyline fill="none" points="433,125 442,125" stroke="rgb(0, 0, 0)" stroke-linecap="square" stroke-width="3.0"/>
   <text fill="rgb(0, 0, 0)" font-family="SansSerif" font-size="12" x="419.0" y="129.0">Q</text>
   <ellipse cx="442.0" cy="125.0" fill="rgb(0, 0, 0)" rx="2.0" ry="2.0" stroke="none" stroke-width="3.0"/>
   <ellipse cx="437.0" cy="165.0" fill="none" rx="5.0" ry="5.0" stroke="rgb(0, 0, 0)" stroke-width="2.0"/>
   <ellipse cx="442.0" cy="165.0" fill="rgb(0, 0, 0)" rx="2.0" ry="2.0" stroke="none" stroke-width="2.0"/>
   <polyline fill="none" points="602,115 641,115" stroke="rgb(0, 0, 0)" stroke-linecap="square" stroke-width="2.0"/>
   <polyline fill="none" points="642,115 642,174" stroke="rgb(0, 0, 0)" stroke-linecap="square" stroke-width="2.0"/>
   <polyline fill="none" points="642,175 603,175" stroke="rgb(0, 0, 0)" stroke-linecap="square" stroke-width="2.0"/>
   <polyline fill="none" points="602,175 602,116" stroke="rgb(0, 0, 0)" stroke-linecap="square" stroke-width="2.0"/>
   <ellipse cx="622.0" cy="175.0" fill="rgb(0, 0, 0)" rx="2.0" ry="2.0" stroke="none" stroke-width="2.0"/>
   <text fill="rgb(128, 128, 128)" font-family="SansSerif" font-size="12" x="618.0" y="172.0">R</text>
   <ellipse cx="622.0" cy="115.0" fill="rgb(0, 0, 0)" rx="2.0" ry="2.0" stroke="none" stroke-width="2.0"/>
   <text fill="rgb(128, 128, 128)" font-family="SansSerif" font-size="12" x="618.0" y="130.0">S</text>
   <polyline fill="none" points="592,75 592,125 601,125" stroke="rgb(0, 0, 0)" stroke-linecap="square" stroke-width="3.0"/>
   <ellipse cx="592.0" cy="125.0" fill="rgb(0, 0, 0)" rx="2.0" ry="2.0" stroke="none" stroke-width="3.0"/>
   <text fill="rgb(0, 0, 0)" font-family="SansSerif" font-size="12" x="606.0" y="129.0">D</text>
   <polyline fill="none" points="603,161 610,165 603,169" stroke="rgb(0, 0, 0)" stroke-linecap="square" stroke-width="2.0"/>
   <polyline fill="none" points="592,165 601,165" stroke="rgb(0, 0, 0)" stroke-linecap="square" stroke-width="2.0"/>
   <ellipse cx="592.0" cy="165.0" fill="rgb(0, 0, 0)" rx="2.0" ry="2.0" stroke="none" stroke-width="2.0"/>
   <polyline fill="none" points="643,125 652,125 672,125 672,275" stroke="rgb(0, 0, 0)" stroke-linecap="square" stroke-width="3.0"/>
   <text fill="rgb(0, 0, 0)" font-family="SansSerif" font-size="12" x="629.0" y="129.0">Q</text>
   <ellipse cx="652.0" cy="125.0" fill="rgb(0, 0, 0)" rx="2.0" ry="2.0" stroke="none" stroke-width="3.0"/>
   <ellipse cx="647.0" cy="165.0" fill="none" rx="5.0" ry="5.0" stroke="rgb(0, 0, 0)" stroke-width="2.0"/>
   <ellipse cx="652.0" cy="165.0" fill="rgb(0, 0, 0)" rx="2.0" ry="2.0" stroke="none" stroke-width="2.0"/>
   <polyline fill="none" points="502,115 541,115" stroke="rgb(0, 0, 0)" stroke-linecap="square" stroke-width="2.0"/>
   <polyline fill="none" points="542,115 542,174" stroke="rgb(0, 0, 0)" stroke-linecap="square" stroke-width="2.0"/>
   <polyline fill="none" points="542,175 503,175" stroke="rgb(0, 0, 0)" stroke-linecap="square" stroke-width="2.0"/>
   <polyline fill="none" points="502,175 502,116" stroke="rgb(0, 0, 0)" stroke-linecap="square" stroke-width="2.0"/>
   <ellipse cx="522.0" cy="175.0" fill="rgb(0, 0, 0)" rx="2.0" ry="2.0" stroke="none" stroke-width="2.0"/>
   <text fill="rgb(128, 128, 128)" font-family="SansSerif" font-size="12" x="518.0" y="172.0">R</text>
   <ellipse cx="522.0" cy="115.0" fill="rgb(0, 0, 0)" rx="2.0" ry="2.0" stroke="none" stroke-width="2.0"/>
   <text fill="rgb(128, 128, 128)" font-family="SansSerif" font-size="12" x="518.0" y="130.0">S</text>
   <polyline fill="none" points="492,75 492,125 501,125" stroke="rgb(0, 0, 0)" stroke-linecap="square" stroke-width="3.0"/>
   <ellipse cx="492.0" cy="125.0" fill="rgb(0, 0, 0)" rx="2.0" ry="2.0" stroke="none" stroke-width="3.0"/>
   <text fill="rgb(0, 0, 0)" font-family="SansSerif" font-size="12" x="506.0" y="129.0">D</text>
   <polyline fill="none" points="503,161 510,165 503,169" stroke="rgb(0, 0, 0)" stroke-linecap="square" stroke-width="2.0"/>
   <polyline fill="none" points="492,165 501,165" stroke="rgb(0, 0, 0)" stroke-linecap="square" stroke-width="2.0"/>
   <ellipse cx="492.0" cy="165.0" fill="rgb(0, 0, 0)" rx="2.0" ry="2.0" stroke="none" stroke-width="2.0"/>
   <polyline fill="none" points="543,125 552,125 572,125 572,275" stroke="rgb(0, 0, 0)" stroke-linecap="square" stroke-width="3.0"/>
   <text fill="rgb(0, 0, 0)" font-family="SansSerif" font-size="12" x="529.0" y="129.0">Q</text>
   <ellipse cx="552.0" cy="125.0" fill="rgb(0, 0, 0)" rx="2.0" ry="2.0" stroke="none" stroke-width="3.0"/>
   <ellipse cx="547.0" cy="165.0" fill="none" rx="5.0" ry="5.0" stroke="rgb(0, 0, 0)" stroke-width="2.0"/>
   <ellipse cx="552.0" cy="165.0" fill="rgb(0, 0, 0)" rx="2.0" ry="2.0" stroke="none" stroke-width="2.0"/>
   <polyline fill="none" points="282,115 321,115" stroke="rgb(0, 0, 0)" stroke-linecap="square" stroke-width="2.0"/>
   <polyline fill="none" points="322,115 322,174" stroke="rgb(0, 0, 0)" stroke-linecap="square" stroke-width="2.0"/>
   <polyline fill="none" points="322,175 283,175" stroke="rgb(0, 0, 0)" stroke-linecap="square" stroke-width="2.0"/>
   <polyline fill="none" points="282,175 282,116" stroke="rgb(0, 0, 0)" stroke-linecap="square" stroke-width="2.0"/>
   <ellipse cx="302.0" cy="175.0" fill="rgb(0, 0, 0)" rx="2.0" ry="2.0" stroke="none" stroke-width="2.0"/>
   <text fill="rgb(128, 128, 128)" font-family="SansSerif" font-size="12" x="298.0" y="172.0">R</text>
   <ellipse cx="302.0" cy="115.0" fill="rgb(0, 0, 0)" rx="2.0" ry="2.0" stroke="none" stroke-width="2.0"/>
   <text fill="rgb(128, 128, 128)" font-family="SansSerif" font-size="12" x="298.0" y="130.0">S</text>
   <polyline fill="none" points="272,75 272,125 281,125" stroke="rgb(0, 0, 0)" stroke-linecap="square" stroke-width="3.0"/>
   <ellipse cx="272.0" cy="125.0" fill="rgb(0, 0, 0)" rx="2.0" ry="2.0" stroke="none" stroke-width="3.0"/>
   <text fill="rgb(0, 0, 0)" font-family="SansSerif" font-size="12" x="286.0" y="129.0">D</text>
   <polyline fill="none" points="283,161 290,165 283,169" stroke="rgb(0, 0, 0)" stroke-linecap="square" stroke-width="2.0"/>
   <polyline fill="none" points="272,165 281,165" stroke="rgb(0, 0, 0)" stroke-linecap="square" stroke-width="2.0"/>
   <ellipse cx="272.0" cy="165.0" fill="rgb(0, 0, 0)" rx="2.0" ry="2.0" stroke="none" stroke-width="2.0"/>
   <polyline fill="none" points="323,125 332,125 362,125 362,275" stroke="rgb(0, 0, 0)" stroke-linecap="square" stroke-width="3.0"/>
   <text fill="rgb(0, 0, 0)" font-family="SansSerif" font-size="12" x="309.0" y="129.0">Q</text>
   <ellipse cx="332.0" cy="125.0" fill="rgb(0, 0, 0)" rx="2.0" ry="2.0" stroke="none" stroke-width="3.0"/>
   <ellipse cx="327.0" cy="165.0" fill="none" rx="5.0" ry="5.0" stroke="rgb(0, 0, 0)" stroke-width="2.0"/>
   <ellipse cx="332.0" cy="165.0" fill="rgb(0, 0, 0)" rx="2.0" ry="2.0" stroke="none" stroke-width="2.0"/>
   <polyline fill="none" points="172,115 211,115" stroke="rgb(0, 0, 0)" stroke-linecap="square" stroke-width="2.0"/>
   <polyline fill="none" points="212,115 212,174" stroke="rgb(0, 0, 0)" stroke-linecap="square" stroke-width="2.0"/>
   <polyline fill="none" points="212,175 173,175" stroke="rgb(0, 0, 0)" stroke-linecap="square" stroke-width="2.0"/>
   <polyline fill="none" points="172,175 172,116" stroke="rgb(0, 0, 0)" stroke-linecap="square" stroke-width="2.0"/>
   <ellipse cx="192.0" cy="175.0" fill="rgb(0, 0, 0)" rx="2.0" ry="2.0" stroke="none" stroke-width="2.0"/>
   <text fill="rgb(128, 128, 128)" font-family="SansSerif" font-size="12" x="188.0" y="172.0">R</text>
   <ellipse cx="192.0" cy="115.0" fill="rgb(0, 0, 0)" rx="2.0" ry="2.0" stroke="none" stroke-width="2.0"/>
   <text fill="rgb(128, 128, 128)" font-family="SansSerif" font-size="12" x="188.0" y="130.0">S</text>
   <polyline fill="none" points="132,75 132,125 162,125 171,125" stroke="rgb(0, 0, 0)" stroke-linecap="square" stroke-width="3.0"/>
   <ellipse cx="162.0" cy="125.0" fill="rgb(0, 0, 0)" rx="2.0" ry="2.0" stroke="none" stroke-width="3.0"/>
   <text fill="rgb(0, 0, 0)" font-family="SansSerif" font-size="12" x="176.0" y="129.0">D</text>
   <polyline fill="none" points="173,161 180,165 173,169" stroke="rgb(0, 0, 0)" stroke-linecap="square" stroke-width="2.0"/>
   <polyline fill="none" points="162,165 171,165" stroke="rgb(0, 0, 0)" stroke-linecap="square" stroke-width="2.0"/>
   <ellipse cx="162.0" cy="165.0" fill="rgb(0, 0, 0)" rx="2.0" ry="2.0" stroke="none" stroke-width="2.0"/>
   <polyline fill="none" points="213,125 222,125 252,125 252,275" stroke="rgb(0, 0, 0)" stroke-linecap="square" stroke-width="3.0"/>
   <text fill="rgb(0, 0, 0)" font-family="SansSerif" font-size="12" x="199.0" y="129.0">Q</text>
   <ellipse cx="222.0" cy="125.0" fill="rgb(0, 0, 0)" rx="2.0" ry="2.0" stroke="none" stroke-width="3.0"/>
   <ellipse cx="217.0" cy="165.0" fill="none" rx="5.0" ry="5.0" stroke="rgb(0, 0, 0)" stroke-width="2.0"/>
   <ellipse cx="222.0" cy="165.0" fill="rgb(0, 0, 0)" rx="2.0" ry="2.0" stroke="none" stroke-width="2.0"/>
   <polyline fill="none" points="72,195 91,195" stroke="rgb(0, 0, 0)" stroke-linecap="square" stroke-width="2.0"/>
   <polyline fill="none" points="92,195 92,214" stroke="rgb(0, 0, 0)" stroke-linecap="square" stroke-width="2.0"/>
   <polyline fill="none" points="92,215 73,215" stroke="rgb(0, 0, 0)" stroke-linecap="square" stroke-width="2.0"/>
   <polyline fill="none" points="72,215 72,196" stroke="rgb(0, 0, 0)" stroke-linecap="square" stroke-width="2.0"/>
   <text fill="rgb(0, 0, 0)" font-family="SansSerif" font-size="16" font-weight="bold" x="37.0" y="212.0">CLK</text>
   <polyline fill="none" points="76,205 76,201 82,201 82,209 88,209 88,205" stroke="rgb(0, 0, 0)" stroke-linecap="square" stroke-width="2.0"/>
   <ellipse cx="92.0" cy="205.0" fill="rgb(0, 0, 0)" rx="2.0" ry="2.0" stroke="none" stroke-width="2.0"/>
   <polygon fill="rgb(178, 178, 178)" points="72,225 89,225 92,228 92,245 75,245 72,242" stroke="none" stroke-linecap="square" stroke-width="1.0"/>
   <rect fill="rgb(255, 255, 255)" height="17" stroke="none" stroke-linecap="square" stroke-width="1.0" width="17" x="72" y="225"/>
   <polyline fill="none" points="72,225 88,225" stroke="rgb(0, 0, 0)" stroke-linecap="square" stroke-width="1.0"/>
   <polyline fill="none" points="89,225 89,241" stroke="rgb(0, 0, 0)" stroke-linecap="square" stroke-width="1.0"/>
   <polyline fill="none" points="72,242 72,226" stroke="rgb(0, 0, 0)" stroke-linecap="square" stroke-width="1.0"/>
   <polyline fill="none" points="73,242 89,242 92,245" stroke="rgb(0, 0, 0)" stroke-linecap="square" stroke-width="1.0"/>
   <polygon fill="none" points="72,225 89,225 92,228 92,245 75,245 72,242" stroke="rgb(0, 0, 0)" stroke-linecap="square" stroke-width="1.0"/>
   <text fill="rgb(0, 0, 0)" font-family="SansSerif" font-size="16" font-weight="bold" x="36.0" y="242.0">CLR</text>
   <ellipse cx="92.0" cy="235.0" fill="rgb(0, 0, 0)" rx="2.0" ry="2.0" stroke="none" stroke-width="1.0"/>
   <ellipse cx="252.0" cy="285.0" fill="none" rx="9.0" ry="9.0" stroke="rgb(0, 0, 0)" stroke-width="2.0"/>
   <ellipse cx="252.0" cy="275.0" fill="rgb(0, 0, 0)" rx="2.0" ry="2.0" stroke="none" stroke-width="1.0"/>
   <ellipse cx="362.0" cy="285.0" fill="none" rx="9.0" ry="9.0" stroke="rgb(0, 0, 0)" stroke-width="2.0"/>
   <ellipse cx="362.0" cy="275.0" fill="rgb(0, 0, 0)" rx="2.0" ry="2.0" stroke="none" stroke-width="1.0"/>
   <ellipse cx="472.0" cy="285.0" fill="none" rx="9.0" ry="9.0" stroke="rgb(0, 0, 0)" stroke-width="2.0"/>
   <ellipse cx="472.0" cy="275.0" fill="rgb(0, 0, 0)" rx="2.0" ry="2.0" stroke="none" stroke-width="1.0"/>
   <ellipse cx="572.0" cy="285.0" fill="none" rx="9.0" ry="9.0" stroke="rgb(0, 0, 0)" stroke-width="2.0"/>
   <ellipse cx="572.0" cy="275.0" fill="rgb(0, 0, 0)" rx="2.0" ry="2.0" stroke="none" stroke-width="1.0"/>
   <ellipse cx="672.0" cy="285.0" fill="none" rx="9.0" ry="9.0" stroke="rgb(0, 0, 0)" stroke-width="2.0"/>
   <ellipse cx="672.0" cy="275.0" fill="rgb(0, 0, 0)" rx="2.0" ry="2.0" stroke="none" stroke-width="1.0"/>
   <text fill="rgb(0, 0, 0)" font-family="SansSerif" font-size="16" font-weight="bold" x="236.0" y="314.0">Bit 1</text>
   <polyline fill="none" points="124,57 141,57" stroke="rgb(0, 0, 0)" stroke-linecap="square" stroke-width="2.0"/>
   <polyline fill="none" points="142,57 142,74" stroke="rgb(0, 0, 0)" stroke-linecap="square" stroke-width="2.0"/>
   <polyline fill="none" points="142,75 125,75" stroke="rgb(0, 0, 0)" stroke-linecap="square" stroke-width="2.0"/>
   <polyline fill="none" points="124,75 124,58" stroke="rgb(0, 0, 0)" stroke-linecap="square" stroke-width="2.0"/>
   <text fill="rgb(0, 0, 0)" font-family="SansSerif" font-size="12" x="125.0" y="71.0">x1</text>
   <text fill="rgb(0, 0, 0)" font-family="SansSerif" font-size="16" font-weight="bold" x="120.0" y="49.0">PA</text>
   <ellipse cx="132.0" cy="75.0" fill="rgb(0, 0, 0)" rx="2.0" ry="2.0" stroke="none" stroke-width="2.0"/>
   <polyline fill="none" points="264,57 281,57" stroke="rgb(0, 0, 0)" stroke-linecap="square" stroke-width="2.0"/>
   <polyline fill="none" points="282,57 282,74" stroke="rgb(0, 0, 0)" stroke-linecap="square" stroke-width="2.0"/>
   <polyline fill="none" points="282,75 265,75" stroke="rgb(0, 0, 0)" stroke-linecap="square" stroke-width="2.0"/>
   <polyline fill="none" points="264,75 264,58" stroke="rgb(0, 0, 0)" stroke-linecap="square" stroke-width="2.0"/>
   <text fill="rgb(0, 0, 0)" font-family="SansSerif" font-size="12" x="265.0" y="71.0">x1</text>
   <text fill="rgb(0, 0, 0)" font-family="SansSerif" font-size="16" font-weight="bold" x="260.0" y="49.0">PB</text>
   <ellipse cx="272.0" cy="75.0" fill="rgb(0, 0, 0)" rx="2.0" ry="2.0" stroke="none" stroke-width="2.0"/>
   <polyline fill="none" points="374,57 391,57" stroke="rgb(0, 0, 0)" stroke-linecap="square" stroke-width="2.0"/>
   <polyline fill="none" points="392,57 392,74" stroke="rgb(0, 0, 0)" stroke-linecap="square" stroke-width="2.0"/>
   <polyline fill="none" points="392,75 375,75" stroke="rgb(0, 0, 0)" stroke-linecap="square" stroke-width="2.0"/>
   <polyline fill="none" points="374,75 374,58" stroke="rgb(0, 0, 0)" stroke-linecap="square" stroke-width="2.0"/>
   <text fill="rgb(0, 0, 0)" font-family="SansSerif" font-size="12" x="375.0" y="71.0">x1</text>
   <text fill="rgb(0, 0, 0)" font-family="SansSerif" font-size="16" font-weight="bold" x="370.0" y="49.0">PC</text>
   <ellipse cx="382.0" cy="75.0" fill="rgb(0, 0, 0)" rx="2.0" ry="2.0" stroke="none" stroke-width="2.0"/>
   <polyline fill="none" points="484,57 501,57" stroke="rgb(0, 0, 0)" stroke-linecap="square" stroke-width="2.0"/>
   <polyline fill="none" points="502,57 502,74" stroke="rgb(0, 0, 0)" stroke-linecap="square" stroke-width="2.0"/>
   <polyline fill="none" points="502,75 485,75" stroke="rgb(0, 0, 0)" stroke-linecap="square" stroke-width="2.0"/>
   <polyline fill="none" points="484,75 484,58" stroke="rgb(0, 0, 0)" stroke-linecap="square" stroke-width="2.0"/>
   <text fill="rgb(0, 0, 0)" font-family="SansSerif" font-size="12" x="485.0" y="71.0">x1</text>
   <text fill="rgb(0, 0, 0)" font-family="SansSerif" font-size="16" font-weight="bold" x="480.0" y="49.0">PD</text>
   <ellipse cx="492.0" cy="75.0" fill="rgb(0, 0, 0)" rx="2.0" ry="2.0" stroke="none" stroke-width="2.0"/>
   <polyline fill="none" points="584,57 601,57" stroke="rgb(0, 0, 0)" stroke-linecap="square" stroke-width="2.0"/>
   <polyline fill="none" points="602,57 602,74" stroke="rgb(0, 0, 0)" stroke-linecap="square" stroke-width="2.0"/>
   <polyline fill="none" points="602,75 585,75" stroke="rgb(0, 0, 0)" stroke-linecap="square" stroke-width="2.0"/>
   <polyline fill="none" points="584,75 584,58" stroke="rgb(0, 0, 0)" stroke-linecap="square" stroke-width="2.0"/>
   <text fill="rgb(0, 0, 0)" font-family="SansSerif" font-size="12" x="585.0" y="71.0">x1</text>
   <text fill="rgb(0, 0, 0)" font-family="SansSerif" font-size="16" font-weight="bold" x="581.0" y="49.0">PE</text>
   <ellipse cx="592.0" cy="75.0" fill="rgb(0, 0, 0)" rx="2.0" ry="2.0" stroke="none" stroke-width="2.0"/>
   <text fill="rgb(0, 0, 0)" font-family="SansSerif" font-size="16" font-weight="bold" x="12.0" y="24.0">8-Bit Parallel Out Shift Register (PIPO)</text>
   <text fill="rgb(0, 0, 0)" font-family="SansSerif" font-size="16" font-weight="bold" x="139.0" y="110.0">MSB</text>
   <text fill="rgb(0, 0, 0)" font-family="SansSerif" font-size="16" font-weight="bold" x="633.0" y="106.0">LSB</text>
   <polyline fill="none" points="722,115 761,115" stroke="rgb(0, 0, 0)" stroke-linecap="square" stroke-width="2.0"/>
   <polyline fill="none" points="762,115 762,174" stroke="rgb(0, 0, 0)" stroke-linecap="square" stroke-width="2.0"/>
   <polyline fill="none" points="762,175 723,175" stroke="rgb(0, 0, 0)" stroke-linecap="square" stroke-width="2.0"/>
   <polyline fill="none" points="722,175 722,116" stroke="rgb(0, 0, 0)" stroke-linecap="square" stroke-width="2.0"/>
   <ellipse cx="742.0" cy="175.0" fill="rgb(0, 0, 0)" rx="2.0" ry="2.0" stroke="none" stroke-width="2.0"/>
   <text fill="rgb(128, 128, 128)" font-family="SansSerif" font-size="12" x="738.0" y="172.0">R</text>
   <ellipse cx="742.0" cy="115.0" fill="rgb(0, 0, 0)" rx="2.0" ry="2.0" stroke="none" stroke-width="2.0"/>
   <text fill="rgb(128, 128, 128)" font-family="SansSerif" font-size="12" x="738.0" y="130.0">S</text>
   <polyline fill="none" points="712,75 712,125 721,125" stroke="rgb(0, 0, 0)" stroke-linecap="square" stroke-width="3.0"/>
   <ellipse cx="712.0" cy="125.0" fill="rgb(0, 0, 0)" rx="2.0" ry="2.0" stroke="none" stroke-width="3.0"/>
   <text fill="rgb(0, 0, 0)" font-family="SansSerif" font-size="12" x="726.0" y="129.0">D</text>
   <polyline fill="none" points="723,161 730,165 723,169" stroke="rgb(0, 0, 0)" stroke-linecap="square" stroke-width="2.0"/>
   <polyline fill="none" points="712,165 721,165" stroke="rgb(0, 0, 0)" stroke-linecap="square" stroke-width="2.0"/>
   <ellipse cx="712.0" cy="165.0" fill="rgb(0, 0, 0)" rx="2.0" ry="2.0" stroke="none" stroke-width="2.0"/>
   <polyline fill="none" points="763,125 772,125 792,125 792,275" stroke="rgb(0, 0, 0)" stroke-linecap="square" stroke-width="3.0"/>
   <text fill="rgb(0, 0, 0)" font-family="SansSerif" font-size="12" x="749.0" y="129.0">Q</text>
   <ellipse cx="772.0" cy="125.0" fill="rgb(0, 0, 0)" rx="2.0" ry="2.0" stroke="none" stroke-width="3.0"/>
   <ellipse cx="767.0" cy="165.0" fill="none" rx="5.0" ry="5.0" stroke="rgb(0, 0, 0)" stroke-width="2.0"/>
   <ellipse cx="772.0" cy="165.0" fill="rgb(0, 0, 0)" rx="2.0" ry="2.0" stroke="none" stroke-width="2.0"/>
   <polyline fill="none" points="704,57 721,57" stroke="rgb(0, 0, 0)" stroke-linecap="square" stroke-width="2.0"/>
   <polyline fill="none" points="722,57 722,74" stroke="rgb(0, 0, 0)" stroke-linecap="square" stroke-width="2.0"/>
   <polyline fill="none" points="722,75 705,75" stroke="rgb(0, 0, 0)" stroke-linecap="square" stroke-width="2.0"/>
   <polyline fill="none" points="704,75 704,58" stroke="rgb(0, 0, 0)" stroke-linecap="square" stroke-width="2.0"/>
   <text fill="rgb(0, 0, 0)" font-family="SansSerif" font-size="12" x="705.0" y="71.0">x1</text>
   <text fill="rgb(0, 0, 0)" font-family="SansSerif" font-size="16" font-weight="bold" x="701.0" y="49.0">PF</text>
   <ellipse cx="712.0" cy="75.0" fill="rgb(0, 0, 0)" rx="2.0" ry="2.0" stroke="none" stroke-width="2.0"/>
   <polyline fill="none" points="822,115 861,115" stroke="rgb(0, 0, 0)" stroke-linecap="square" stroke-width="2.0"/>
   <polyline fill="none" points="862,115 862,174" stroke="rgb(0, 0, 0)" stroke-linecap="square" stroke-width="2.0"/>
   <polyline fill="none" points="862,175 823,175" stroke="rgb(0, 0, 0)" stroke-linecap="square" stroke-width="2.0"/>
   <polyline fill="none" points="822,175 822,116" stroke="rgb(0, 0, 0)" stroke-linecap="square" stroke-width="2.0"/>
   <ellipse cx="842.0" cy="175.0" fill="rgb(0, 0, 0)" rx="2.0" ry="2.0" stroke="none" stroke-width="2.0"/>
   <text fill="rgb(128, 128, 128)" font-family="SansSerif" font-size="12" x="838.0" y="172.0">R</text>
   <ellipse cx="842.0" cy="115.0" fill="rgb(0, 0, 0)" rx="2.0" ry="2.0" stroke="none" stroke-width="2.0"/>
   <text fill="rgb(128, 128, 128)" font-family="SansSerif" font-size="12" x="838.0" y="130.0">S</text>
   <polyline fill="none" points="812,75 812,125 821,125" stroke="rgb(0, 0, 0)" stroke-linecap="square" stroke-width="3.0"/>
   <ellipse cx="812.0" cy="125.0" fill="rgb(0, 0, 0)" rx="2.0" ry="2.0" stroke="none" stroke-width="3.0"/>
   <text fill="rgb(0, 0, 0)" font-family="SansSerif" font-size="12" x="826.0" y="129.0">D</text>
   <polyline fill="none" points="823,161 830,165 823,169" stroke="rgb(0, 0, 0)" stroke-linecap="square" stroke-width="2.0"/>
   <polyline fill="none" points="812,165 821,165" stroke="rgb(0, 0, 0)" stroke-linecap="square" stroke-width="2.0"/>
   <ellipse cx="812.0" cy="165.0" fill="rgb(0, 0, 0)" rx="2.0" ry="2.0" stroke="none" stroke-width="2.0"/>
   <polyline fill="none" points="863,125 872,125 912,125 912,275" stroke="rgb(0, 0, 0)" stroke-linecap="square" stroke-width="3.0"/>
   <text fill="rgb(0, 0, 0)" font-family="SansSerif" font-size="12" x="849.0" y="129.0">Q</text>
   <ellipse cx="872.0" cy="125.0" fill="rgb(0, 0, 0)" rx="2.0" ry="2.0" stroke="none" stroke-width="3.0"/>
   <ellipse cx="867.0" cy="165.0" fill="none" rx="5.0" ry="5.0" stroke="rgb(0, 0, 0)" stroke-width="2.0"/>
   <ellipse cx="872.0" cy="165.0" fill="rgb(0, 0, 0)" rx="2.0" ry="2.0" stroke="none" stroke-width="2.0"/>
   <polyline fill="none" points="804,57 821,57" stroke="rgb(0, 0, 0)" stroke-linecap="square" stroke-width="2.0"/>
   <polyline fill="none" points="822,57 822,74" stroke="rgb(0, 0, 0)" stroke-linecap="square" stroke-width="2.0"/>
   <polyline fill="none" points="822,75 805,75" stroke="rgb(0, 0, 0)" stroke-linecap="square" stroke-width="2.0"/>
   <polyline fill="none" points="804,75 804,58" stroke="rgb(0, 0, 0)" stroke-linecap="square" stroke-width="2.0"/>
   <text fill="rgb(0, 0, 0)" font-family="SansSerif" font-size="12" x="805.0" y="71.0">x1</text>
   <text fill="rgb(0, 0, 0)" font-family="SansSerif" font-size="16" font-weight="bold" x="800.0" y="49.0">PG</text>
   <ellipse cx="812.0" cy="75.0" fill="rgb(0, 0, 0)" rx="2.0" ry="2.0" stroke="none" stroke-width="2.0"/>
   <ellipse cx="792.0" cy="285.0" fill="none" rx="9.0" ry="9.0" stroke="rgb(0, 0, 0)" stroke-width="2.0"/>
   <ellipse cx="792.0" cy="275.0" fill="rgb(0, 0, 0)" rx="2.0" ry="2.0" stroke="none" stroke-width="1.0"/>
   <polyline fill="none" points="962,115 1001,115" stroke="rgb(0, 0, 0)" stroke-linecap="square" stroke-width="2.0"/>
   <polyline fill="none" points="1002,115 1002,174" stroke="rgb(0, 0, 0)" stroke-linecap="square" stroke-width="2.0"/>
   <polyline fill="none" points="1002,175 963,175" stroke="rgb(0, 0, 0)" stroke-linecap="square" stroke-width="2.0"/>
   <polyline fill="none" points="962,175 962,116" stroke="rgb(0, 0, 0)" stroke-linecap="square" stroke-width="2.0"/>
   <ellipse cx="982.0" cy="175.0" fill="rgb(0, 0, 0)" rx="2.0" ry="2.0" stroke="none" stroke-width="2.0"/>
   <text fill="rgb(128, 128, 128)" font-family="SansSerif" font-size="12" x="978.0" y="172.0">R</text>
   <ellipse cx="982.0" cy="115.0" fill="rgb(0, 0, 0)" rx="2.0" ry="2.0" stroke="none" stroke-width="2.0"/>
   <text fill="rgb(128, 128, 128)" font-family="SansSerif" font-size="12" x="978.0" y="130.0">S</text>
   <polyline fill="none" points="922,75 922,125 952,125 961,125" stroke="rgb(0, 0, 0)" stroke-linecap="square" stroke-width="3.0"/>
   <ellipse cx="952.0" cy="125.0" fill="rgb(0, 0, 0)" rx="2.0" ry="2.0" stroke="none" stroke-width="3.0"/>
   <text fill="rgb(0, 0, 0)" font-family="SansSerif" font-size="12" x="966.0" y="129.0">D</text>
   <polyline fill="none" points="963,161 970,165 963,169" stroke="rgb(0, 0, 0)" stroke-linecap="square" stroke-width="2.0"/>
   <polyline fill="none" points="952,165 961,165" stroke="rgb(0, 0, 0)" stroke-linecap="square" stroke-width="2.0"/>
   <ellipse cx="952.0" cy="165.0" fill="rgb(0, 0, 0)" rx="2.0" ry="2.0" stroke="none" stroke-width="2.0"/>
   <polyline fill="none" points="1003,125 1012,125 1042,125 1042,275" stroke="rgb(0, 0, 0)" stroke-linecap="square" stroke-width="3.0"/>
   <text fill="rgb(0, 0, 0)" font-family="SansSerif" font-size="12" x="989.0" y="129.0">Q</text>
   <ellipse cx="1012.0" cy="125.0" fill="rgb(0, 0, 0)" rx="2.0" ry="2.0" stroke="none" stroke-width="3.0"/>
   <ellipse cx="1007.0" cy="165.0" fill="none" rx="5.0" ry="5.0" stroke="rgb(0, 0, 0)" stroke-width="2.0"/>
   <ellipse cx="1012.0" cy="165.0" fill="rgb(0, 0, 0)" rx="2.0" ry="2.0" stroke="none" stroke-width="2.0"/>
   <ellipse cx="912.0" cy="285.0" fill="none" rx="9.0" ry="9.0" stroke="rgb(0, 0, 0)" stroke-width="2.0"/>
   <ellipse cx="912.0" cy="275.0" fill="rgb(0, 0, 0)" rx="2.0" ry="2.0" stroke="none" stroke-width="1.0"/>
   <polyline fill="none" points="914,57 931,57" stroke="rgb(0, 0, 0)" stroke-linecap="square" stroke-width="2.0"/>
   <polyline fill="none" points="932,57 932,74" stroke="rgb(0, 0, 0)" stroke-linecap="square" stroke-width="2.0"/>
   <polyline fill="none" points="932,75 915,75" stroke="rgb(0, 0, 0)" stroke-linecap="square" stroke-width="2.0"/>
   <polyline fill="none" points="914,75 914,58" stroke="rgb(0, 0, 0)" stroke-linecap="square" stroke-width="2.0"/>
   <text fill="rgb(0, 0, 0)" font-family="SansSerif" font-size="12" x="915.0" y="71.0">x1</text>
   <text fill="rgb(0, 0, 0)" font-family="SansSerif" font-size="16" font-weight="bold" x="910.0" y="49.0">PH</text>
   <ellipse cx="922.0" cy="75.0" fill="rgb(0, 0, 0)" rx="2.0" ry="2.0" stroke="none" stroke-width="2.0"/>
   <ellipse cx="1042.0" cy="285.0" fill="none" rx="9.0" ry="9.0" stroke="rgb(0, 0, 0)" stroke-width="2.0"/>
   <ellipse cx="1042.0" cy="275.0" fill="rgb(0, 0, 0)" rx="2.0" ry="2.0" stroke="none" stroke-width="1.0"/>
   <text fill="rgb(0, 0, 0)" font-family="SansSerif" font-size="16" font-weight="bold" x="346.0" y="314.0">Bit 2</text>
   <text fill="rgb(0, 0, 0)" font-family="SansSerif" font-size="16" font-weight="bold" x="457.0" y="313.0">Bit 3</text>
   <text fill="rgb(0, 0, 0)" font-family="SansSerif" font-size="16" font-weight="bold" x="554.0" y="312.0">Bit 4</text>
   <text fill="rgb(0, 0, 0)" font-family="SansSerif" font-size="16" font-weight="bold" x="653.0" y="312.0">Bit 5</text>
   <text fill="rgb(0, 0, 0)" font-family="SansSerif" font-size="16" font-weight="bold" x="777.0" y="313.0">Bit 6</text>
   <text fill="rgb(0, 0, 0)" font-family="SansSerif" font-size="16" font-weight="bold" x="893.0" y="312.0">Bit 7</text>
   <text fill="rgb(0, 0, 0)" font-family="SansSerif" font-size="16" font-weight="bold" x="1021.0" y="313.0">Bit 8</text>
</svg>
