<?xml version="1.0" encoding="UTF-8" standalone="no"?>
<svg xmlns="http://www.w3.org/2000/svg" version="1.1" viewBox="0 0 1054 337">
   <polyline fill="none" points="80,219 140,219 250,219 250,179 260,179" stroke="rgb(0, 0, 0)" stroke-linecap="square" stroke-width="3.0"/>
   <polyline fill="none" points="180,189 180,249 80,249" stroke="rgb(0, 0, 0)" stroke-linecap="square" stroke-width="3.0"/>
   <polyline fill="none" points="690,219 690,179 700,179" stroke="rgb(0, 0, 0)" stroke-linecap="square" stroke-width="3.0"/>
   <polyline fill="none" points="570,219 570,179 580,179" stroke="rgb(0, 0, 0)" stroke-linecap="square" stroke-width="3.0"/>
   <polyline fill="none" points="470,219 470,179 480,179" stroke="rgb(0, 0, 0)" stroke-linecap="square" stroke-width="3.0"/>
   <polyline fill="none" points="250,219 360,219 470,219 570,219 690,219 790,219 790,179 800,179" stroke="rgb(0, 0, 0)" stroke-linecap="square" stroke-width="3.0"/>
   <polyline fill="none" points="180,249 290,249 400,249 400,189" stroke="rgb(0, 0, 0)" stroke-linecap="square" stroke-width="3.0"/>
   <polyline fill="none" points="970,189 970,249 830,249 730,249 610,249 510,249 400,249" stroke="rgb(0, 0, 0)" stroke-linecap="square" stroke-width="3.0"/>
   <polyline fill="none" points="360,219 360,179 370,179" stroke="rgb(0, 0, 0)" stroke-linecap="square" stroke-width="3.0"/>
   <polyline fill="none" points="730,189 730,249" stroke="rgb(0, 0, 0)" stroke-linecap="square" stroke-width="3.0"/>
   <polyline fill="none" points="140,219 140,179 150,179" stroke="rgb(0, 0, 0)" stroke-linecap="square" stroke-width="3.0"/>
   <polyline fill="none" points="830,189 830,249" stroke="rgb(0, 0, 0)" stroke-linecap="square" stroke-width="3.0"/>
   <polyline fill="none" points="510,189 510,249" stroke="rgb(0, 0, 0)" stroke-linecap="square" stroke-width="3.0"/>
   <polyline fill="none" points="610,189 610,249" stroke="rgb(0, 0, 0)" stroke-linecap="square" stroke-width="3.0"/>
   <polyline fill="none" points="940,179 920,179 920,219 790,219" stroke="rgb(0, 0, 0)" stroke-linecap="square" stroke-width="3.0"/>
   <polyline fill="none" points="290,189 290,249" stroke="rgb(0, 0, 0)" stroke-linecap="square" stroke-width="3.0"/>
   <polyline fill="none" points="420,139 430,139 460,139 460,289" stroke="rgb(0, 0, 0)" stroke-linecap="square" stroke-width="3.0"/>
   <ellipse cx="430.0" cy="139.0" fill="rgb(0, 0, 0)" rx="5.0" ry="5.0" stroke="none" stroke-width="3.0"/>
   <ellipse cx="510.0" cy="249.0" fill="rgb(0, 0, 0)" rx="5.0" ry="5.0" stroke="none" stroke-width="3.0"/>
   <ellipse cx="470.0" cy="219.0" fill="rgb(0, 0, 0)" rx="5.0" ry="5.0" stroke="none" stroke-width="3.0"/>
   <ellipse cx="180.0" cy="249.0" fill="rgb(0, 0, 0)" rx="5.0" ry="5.0" stroke="none" stroke-width="3.0"/>
   <ellipse cx="140.0" cy="219.0" fill="rgb(0, 0, 0)" rx="5.0" ry="5.0" stroke="none" stroke-width="3.0"/>
   <ellipse cx="610.0" cy="249.0" fill="rgb(0, 0, 0)" rx="5.0" ry="5.0" stroke="none" stroke-width="3.0"/>
   <ellipse cx="570.0" cy="219.0" fill="rgb(0, 0, 0)" rx="5.0" ry="5.0" stroke="none" stroke-width="3.0"/>
   <ellipse cx="290.0" cy="249.0" fill="rgb(0, 0, 0)" rx="5.0" ry="5.0" stroke="none" stroke-width="3.0"/>
   <ellipse cx="250.0" cy="219.0" fill="rgb(0, 0, 0)" rx="5.0" ry="5.0" stroke="none" stroke-width="3.0"/>
   <ellipse cx="730.0" cy="249.0" fill="rgb(0, 0, 0)" rx="5.0" ry="5.0" stroke="none" stroke-width="3.0"/>
   <ellipse cx="690.0" cy="219.0" fill="rgb(0, 0, 0)" rx="5.0" ry="5.0" stroke="none" stroke-width="3.0"/>
   <ellipse cx="400.0" cy="249.0" fill="rgb(0, 0, 0)" rx="5.0" ry="5.0" stroke="none" stroke-width="3.0"/>
   <ellipse cx="360.0" cy="219.0" fill="rgb(0, 0, 0)" rx="5.0" ry="5.0" stroke="none" stroke-width="3.0"/>
   <ellipse cx="830.0" cy="249.0" fill="rgb(0, 0, 0)" rx="5.0" ry="5.0" stroke="none" stroke-width="3.0"/>
   <ellipse cx="790.0" cy="219.0" fill="rgb(0, 0, 0)" rx="5.0" ry="5.0" stroke="none" stroke-width="3.0"/>
   <polyline fill="none" points="902,71 919,71" stroke="rgb(0, 0, 0)" stroke-linecap="square" stroke-width="2.0"/>
   <polyline fill="none" points="920,71 920,88" stroke="rgb(0, 0, 0)" stroke-linecap="square" stroke-width="2.0"/>
   <polyline fill="none" points="920,89 903,89" stroke="rgb(0, 0, 0)" stroke-linecap="square" stroke-width="2.0"/>
   <polyline fill="none" points="902,89 902,72" stroke="rgb(0, 0, 0)" stroke-linecap="square" stroke-width="2.0"/>
   <text fill="rgb(0, 0, 0)" font-family="SansSerif" font-size="12" x="903.0" y="85.0">x1</text>
   <text fill="rgb(0, 0, 0)" font-family="SansSerif" font-size="16" font-weight="bold" x="898.0" y="63.0">PH</text>
   <ellipse cx="910.0" cy="89.0" fill="rgb(0, 0, 0)" rx="2.0" ry="2.0" stroke="none" stroke-width="2.0"/>
   <polyline fill="none" points="60,209 79,209" stroke="rgb(0, 0, 0)" stroke-linecap="square" stroke-width="2.0"/>
   <polyline fill="none" points="80,209 80,228" stroke="rgb(0, 0, 0)" stroke-linecap="square" stroke-width="2.0"/>
   <polyline fill="none" points="80,229 61,229" stroke="rgb(0, 0, 0)" stroke-linecap="square" stroke-width="2.0"/>
   <polyline fill="none" points="60,229 60,210" stroke="rgb(0, 0, 0)" stroke-linecap="square" stroke-width="2.0"/>
   <text fill="rgb(0, 0, 0)" font-family="SansSerif" font-size="16" font-weight="bold" x="25.0" y="226.0">CLK</text>
   <polyline fill="none" points="64,219 64,215 70,215 70,223 76,223 76,219" stroke="rgb(0, 0, 0)" stroke-linecap="square" stroke-width="2.0"/>
   <ellipse cx="80.0" cy="219.0" fill="rgb(0, 0, 0)" rx="2.0" ry="2.0" stroke="none" stroke-width="2.0"/>
   <polyline fill="none" points="112,71 129,71" stroke="rgb(0, 0, 0)" stroke-linecap="square" stroke-width="2.0"/>
   <polyline fill="none" points="130,71 130,88" stroke="rgb(0, 0, 0)" stroke-linecap="square" stroke-width="2.0"/>
   <polyline fill="none" points="130,89 113,89" stroke="rgb(0, 0, 0)" stroke-linecap="square" stroke-width="2.0"/>
   <polyline fill="none" points="112,89 112,72" stroke="rgb(0, 0, 0)" stroke-linecap="square" stroke-width="2.0"/>
   <text fill="rgb(0, 0, 0)" font-family="SansSerif" font-size="12" x="113.0" y="85.0">x1</text>
   <text fill="rgb(0, 0, 0)" font-family="SansSerif" font-size="16" font-weight="bold" x="108.0" y="63.0">PA</text>
   <ellipse cx="120.0" cy="89.0" fill="rgb(0, 0, 0)" rx="2.0" ry="2.0" stroke="none" stroke-width="2.0"/>
   <polyline fill="none" points="252,71 269,71" stroke="rgb(0, 0, 0)" stroke-linecap="square" stroke-width="2.0"/>
   <polyline fill="none" points="270,71 270,88" stroke="rgb(0, 0, 0)" stroke-linecap="square" stroke-width="2.0"/>
   <polyline fill="none" points="270,89 253,89" stroke="rgb(0, 0, 0)" stroke-linecap="square" stroke-width="2.0"/>
   <polyline fill="none" points="252,89 252,72" stroke="rgb(0, 0, 0)" stroke-linecap="square" stroke-width="2.0"/>
   <text fill="rgb(0, 0, 0)" font-family="SansSerif" font-size="12" x="253.0" y="85.0">x1</text>
   <text fill="rgb(0, 0, 0)" font-family="SansSerif" font-size="16" font-weight="bold" x="248.0" y="63.0">PB</text>
   <ellipse cx="260.0" cy="89.0" fill="rgb(0, 0, 0)" rx="2.0" ry="2.0" stroke="none" stroke-width="2.0"/>
   <polyline fill="none" points="362,71 379,71" stroke="rgb(0, 0, 0)" stroke-linecap="square" stroke-width="2.0"/>
   <polyline fill="none" points="380,71 380,88" stroke="rgb(0, 0, 0)" stroke-linecap="square" stroke-width="2.0"/>
   <polyline fill="none" points="380,89 363,89" stroke="rgb(0, 0, 0)" stroke-linecap="square" stroke-width="2.0"/>
   <polyline fill="none" points="362,89 362,72" stroke="rgb(0, 0, 0)" stroke-linecap="square" stroke-width="2.0"/>
   <text fill="rgb(0, 0, 0)" font-family="SansSerif" font-size="12" x="363.0" y="85.0">x1</text>
   <text fill="rgb(0, 0, 0)" font-family="SansSerif" font-size="16" font-weight="bold" x="358.0" y="63.0">PC</text>
   <ellipse cx="370.0" cy="89.0" fill="rgb(0, 0, 0)" rx="2.0" ry="2.0" stroke="none" stroke-width="2.0"/>
   <polyline fill="none" points="472,71 489,71" stroke="rgb(0, 0, 0)" stroke-linecap="square" stroke-width="2.0"/>
   <polyline fill="none" points="490,71 490,88" stroke="rgb(0, 0, 0)" stroke-linecap="square" stroke-width="2.0"/>
   <polyline fill="none" points="490,89 473,89" stroke="rgb(0, 0, 0)" stroke-linecap="square" stroke-width="2.0"/>
   <polyline fill="none" points="472,89 472,72" stroke="rgb(0, 0, 0)" stroke-linecap="square" stroke-width="2.0"/>
   <text fill="rgb(0, 0, 0)" font-family="SansSerif" font-size="12" x="473.0" y="85.0">x1</text>
   <text fill="rgb(0, 0, 0)" font-family="SansSerif" font-size="16" font-weight="bold" x="468.0" y="63.0">PD</text>
   <ellipse cx="480.0" cy="89.0" fill="rgb(0, 0, 0)" rx="2.0" ry="2.0" stroke="none" stroke-width="2.0"/>
   <polyline fill="none" points="572,71 589,71" stroke="rgb(0, 0, 0)" stroke-linecap="square" stroke-width="2.0"/>
   <polyline fill="none" points="590,71 590,88" stroke="rgb(0, 0, 0)" stroke-linecap="square" stroke-width="2.0"/>
   <polyline fill="none" points="590,89 573,89" stroke="rgb(0, 0, 0)" stroke-linecap="square" stroke-width="2.0"/>
   <polyline fill="none" points="572,89 572,72" stroke="rgb(0, 0, 0)" stroke-linecap="square" stroke-width="2.0"/>
   <text fill="rgb(0, 0, 0)" font-family="SansSerif" font-size="12" x="573.0" y="85.0">x1</text>
   <text fill="rgb(0, 0, 0)" font-family="SansSerif" font-size="16" font-weight="bold" x="569.0" y="63.0">PE</text>
   <ellipse cx="580.0" cy="89.0" fill="rgb(0, 0, 0)" rx="2.0" ry="2.0" stroke="none" stroke-width="2.0"/>
   <polyline fill="none" points="692,71 709,71" stroke="rgb(0, 0, 0)" stroke-linecap="square" stroke-width="2.0"/>
   <polyline fill="none" points="710,71 710,88" stroke="rgb(0, 0, 0)" stroke-linecap="square" stroke-width="2.0"/>
   <polyline fill="none" points="710,89 693,89" stroke="rgb(0, 0, 0)" stroke-linecap="square" stroke-width="2.0"/>
   <polyline fill="none" points="692,89 692,72" stroke="rgb(0, 0, 0)" stroke-linecap="square" stroke-width="2.0"/>
   <text fill="rgb(0, 0, 0)" font-family="SansSerif" font-size="12" x="693.0" y="85.0">x1</text>
   <text fill="rgb(0, 0, 0)" font-family="SansSerif" font-size="16" font-weight="bold" x="689.0" y="63.0">PF</text>
   <ellipse cx="700.0" cy="89.0" fill="rgb(0, 0, 0)" rx="2.0" ry="2.0" stroke="none" stroke-width="2.0"/>
   <polyline fill="none" points="792,71 809,71" stroke="rgb(0, 0, 0)" stroke-linecap="square" stroke-width="2.0"/>
   <polyline fill="none" points="810,71 810,88" stroke="rgb(0, 0, 0)" stroke-linecap="square" stroke-width="2.0"/>
   <polyline fill="none" points="810,89 793,89" stroke="rgb(0, 0, 0)" stroke-linecap="square" stroke-width="2.0"/>
   <polyline fill="none" points="792,89 792,72" stroke="rgb(0, 0, 0)" stroke-linecap="square" stroke-width="2.0"/>
   <text fill="rgb(0, 0, 0)" font-family="SansSerif" font-size="12" x="793.0" y="85.0">x1</text>
   <text fill="rgb(0, 0, 0)" font-family="SansSerif" font-size="16" font-weight="bold" x="788.0" y="63.0">PG</text>
   <ellipse cx="800.0" cy="89.0" fill="rgb(0, 0, 0)" rx="2.0" ry="2.0" stroke="none" stroke-width="2.0"/>
   <polyline fill="none" points="950,129 989,129" stroke="rgb(0, 0, 0)" stroke-linecap="square" stroke-width="2.0"/>
   <polyline fill="none" points="990,129 990,188" stroke="rgb(0, 0, 0)" stroke-linecap="square" stroke-width="2.0"/>
   <polyline fill="none" points="990,189 951,189" stroke="rgb(0, 0, 0)" stroke-linecap="square" stroke-width="2.0"/>
   <polyline fill="none" points="950,189 950,130" stroke="rgb(0, 0, 0)" stroke-linecap="square" stroke-width="2.0"/>
   <ellipse cx="970.0" cy="189.0" fill="rgb(0, 0, 0)" rx="2.0" ry="2.0" stroke="none" stroke-width="2.0"/>
   <text fill="rgb(128, 128, 128)" font-family="SansSerif" font-size="12" x="966.0" y="186.0">R</text>
   <ellipse cx="970.0" cy="129.0" fill="rgb(0, 0, 0)" rx="2.0" ry="2.0" stroke="none" stroke-width="2.0"/>
   <text fill="rgb(128, 128, 128)" font-family="SansSerif" font-size="12" x="966.0" y="144.0">S</text>
   <polyline fill="none" points="910,89 910,139 940,139 949,139" stroke="rgb(0, 0, 0)" stroke-linecap="square" stroke-width="3.0"/>
   <ellipse cx="940.0" cy="139.0" fill="rgb(0, 0, 0)" rx="2.0" ry="2.0" stroke="none" stroke-width="3.0"/>
   <text fill="rgb(0, 0, 0)" font-family="SansSerif" font-size="12" x="954.0" y="143.0">D</text>
   <polyline fill="none" points="951,175 958,179 951,183" stroke="rgb(0, 0, 0)" stroke-linecap="square" stroke-width="2.0"/>
   <polyline fill="none" points="940,179 949,179" stroke="rgb(0, 0, 0)" stroke-linecap="square" stroke-width="2.0"/>
   <ellipse cx="940.0" cy="179.0" fill="rgb(0, 0, 0)" rx="2.0" ry="2.0" stroke="none" stroke-width="2.0"/>
   <polyline fill="none" points="991,139 1000,139 1030,139 1030,289" stroke="rgb(0, 0, 0)" stroke-linecap="square" stroke-width="3.0"/>
   <text fill="rgb(0, 0, 0)" font-family="SansSerif" font-size="12" x="977.0" y="143.0">Q</text>
   <ellipse cx="1000.0" cy="139.0" fill="rgb(0, 0, 0)" rx="2.0" ry="2.0" stroke="none" stroke-width="3.0"/>
   <ellipse cx="995.0" cy="179.0" fill="none" rx="5.0" ry="5.0" stroke="rgb(0, 0, 0)" stroke-width="2.0"/>
   <ellipse cx="1000.0" cy="179.0" fill="rgb(0, 0, 0)" rx="2.0" ry="2.0" stroke="none" stroke-width="2.0"/>
   <polyline fill="none" points="160,129 199,129" stroke="rgb(0, 0, 0)" stroke-linecap="square" stroke-width="2.0"/>
   <polyline fill="none" points="200,129 200,188" stroke="rgb(0, 0, 0)" stroke-linecap="square" stroke-width="2.0"/>
   <polyline fill="none" points="200,189 161,189" stroke="rgb(0, 0, 0)" stroke-linecap="square" stroke-width="2.0"/>
   <polyline fill="none" points="160,189 160,130" stroke="rgb(0, 0, 0)" stroke-linecap="square" stroke-width="2.0"/>
   <ellipse cx="180.0" cy="189.0" fill="rgb(0, 0, 0)" rx="2.0" ry="2.0" stroke="none" stroke-width="2.0"/>
   <text fill="rgb(128, 128, 128)" font-family="SansSerif" font-size="12" x="176.0" y="186.0">R</text>
   <ellipse cx="180.0" cy="129.0" fill="rgb(0, 0, 0)" rx="2.0" ry="2.0" stroke="none" stroke-width="2.0"/>
   <text fill="rgb(128, 128, 128)" font-family="SansSerif" font-size="12" x="176.0" y="144.0">S</text>
   <polyline fill="none" points="120,89 120,139 150,139 159,139" stroke="rgb(0, 0, 0)" stroke-linecap="square" stroke-width="3.0"/>
   <ellipse cx="150.0" cy="139.0" fill="rgb(0, 0, 0)" rx="2.0" ry="2.0" stroke="none" stroke-width="3.0"/>
   <text fill="rgb(0, 0, 0)" font-family="SansSerif" font-size="12" x="164.0" y="143.0">D</text>
   <polyline fill="none" points="161,175 168,179 161,183" stroke="rgb(0, 0, 0)" stroke-linecap="square" stroke-width="2.0"/>
   <polyline fill="none" points="150,179 159,179" stroke="rgb(0, 0, 0)" stroke-linecap="square" stroke-width="2.0"/>
   <ellipse cx="150.0" cy="179.0" fill="rgb(0, 0, 0)" rx="2.0" ry="2.0" stroke="none" stroke-width="2.0"/>
   <polyline fill="none" points="201,139 210,139 240,139 240,289" stroke="rgb(0, 0, 0)" stroke-linecap="square" stroke-width="3.0"/>
   <text fill="rgb(0, 0, 0)" font-family="SansSerif" font-size="12" x="187.0" y="143.0">Q</text>
   <ellipse cx="210.0" cy="139.0" fill="rgb(0, 0, 0)" rx="2.0" ry="2.0" stroke="none" stroke-width="3.0"/>
   <ellipse cx="205.0" cy="179.0" fill="none" rx="5.0" ry="5.0" stroke="rgb(0, 0, 0)" stroke-width="2.0"/>
   <ellipse cx="210.0" cy="179.0" fill="rgb(0, 0, 0)" rx="2.0" ry="2.0" stroke="none" stroke-width="2.0"/>
   <polyline fill="none" points="270,129 309,129" stroke="rgb(0, 0, 0)" stroke-linecap="square" stroke-width="2.0"/>
   <polyline fill="none" points="310,129 310,188" stroke="rgb(0, 0, 0)" stroke-linecap="square" stroke-width="2.0"/>
   <polyline fill="none" points="310,189 271,189" stroke="rgb(0, 0, 0)" stroke-linecap="square" stroke-width="2.0"/>
   <polyline fill="none" points="270,189 270,130" stroke="rgb(0, 0, 0)" stroke-linecap="square" stroke-width="2.0"/>
   <ellipse cx="290.0" cy="189.0" fill="rgb(0, 0, 0)" rx="2.0" ry="2.0" stroke="none" stroke-width="2.0"/>
   <text fill="rgb(128, 128, 128)" font-family="SansSerif" font-size="12" x="286.0" y="186.0">R</text>
   <ellipse cx="290.0" cy="129.0" fill="rgb(0, 0, 0)" rx="2.0" ry="2.0" stroke="none" stroke-width="2.0"/>
   <text fill="rgb(128, 128, 128)" font-family="SansSerif" font-size="12" x="286.0" y="144.0">S</text>
   <polyline fill="none" points="260,89 260,139 269,139" stroke="rgb(0, 0, 0)" stroke-linecap="square" stroke-width="3.0"/>
   <ellipse cx="260.0" cy="139.0" fill="rgb(0, 0, 0)" rx="2.0" ry="2.0" stroke="none" stroke-width="3.0"/>
   <text fill="rgb(0, 0, 0)" font-family="SansSerif" font-size="12" x="274.0" y="143.0">D</text>
   <polyline fill="none" points="271,175 278,179 271,183" stroke="rgb(0, 0, 0)" stroke-linecap="square" stroke-width="2.0"/>
   <polyline fill="none" points="260,179 269,179" stroke="rgb(0, 0, 0)" stroke-linecap="square" stroke-width="2.0"/>
   <ellipse cx="260.0" cy="179.0" fill="rgb(0, 0, 0)" rx="2.0" ry="2.0" stroke="none" stroke-width="2.0"/>
   <polyline fill="none" points="311,139 320,139 350,139 350,289" stroke="rgb(0, 0, 0)" stroke-linecap="square" stroke-width="3.0"/>
   <text fill="rgb(0, 0, 0)" font-family="SansSerif" font-size="12" x="297.0" y="143.0">Q</text>
   <ellipse cx="320.0" cy="139.0" fill="rgb(0, 0, 0)" rx="2.0" ry="2.0" stroke="none" stroke-width="3.0"/>
   <ellipse cx="315.0" cy="179.0" fill="none" rx="5.0" ry="5.0" stroke="rgb(0, 0, 0)" stroke-width="2.0"/>
   <ellipse cx="320.0" cy="179.0" fill="rgb(0, 0, 0)" rx="2.0" ry="2.0" stroke="none" stroke-width="2.0"/>
   <polyline fill="none" points="380,129 419,129" stroke="rgb(0, 0, 0)" stroke-linecap="square" stroke-width="2.0"/>
   <polyline fill="none" points="420,129 420,188" stroke="rgb(0, 0, 0)" stroke-linecap="square" stroke-width="2.0"/>
   <polyline fill="none" points="420,189 381,189" stroke="rgb(0, 0, 0)" stroke-linecap="square" stroke-width="2.0"/>
   <polyline fill="none" points="380,189 380,130" stroke="rgb(0, 0, 0)" stroke-linecap="square" stroke-width="2.0"/>
   <ellipse cx="400.0" cy="189.0" fill="rgb(0, 0, 0)" rx="2.0" ry="2.0" stroke="none" stroke-width="2.0"/>
   <text fill="rgb(128, 128, 128)" font-family="SansSerif" font-size="12" x="396.0" y="186.0">R</text>
   <ellipse cx="400.0" cy="129.0" fill="rgb(0, 0, 0)" rx="2.0" ry="2.0" stroke="none" stroke-width="2.0"/>
   <text fill="rgb(128, 128, 128)" font-family="SansSerif" font-size="12" x="396.0" y="144.0">S</text>
   <polyline fill="none" points="370,89 370,139 379,139" stroke="rgb(0, 0, 0)" stroke-linecap="square" stroke-width="3.0"/>
   <ellipse cx="370.0" cy="139.0" fill="rgb(0, 0, 0)" rx="2.0" ry="2.0" stroke="none" stroke-width="3.0"/>
   <text fill="rgb(0, 0, 0)" font-family="SansSerif" font-size="12" x="384.0" y="143.0">D</text>
   <polyline fill="none" points="381,175 388,179 381,183" stroke="rgb(0, 0, 0)" stroke-linecap="square" stroke-width="2.0"/>
   <polyline fill="none" points="370,179 379,179" stroke="rgb(0, 0, 0)" stroke-linecap="square" stroke-width="2.0"/>
   <ellipse cx="370.0" cy="179.0" fill="rgb(0, 0, 0)" rx="2.0" ry="2.0" stroke="none" stroke-width="2.0"/>
   <polyline fill="none" points="421,139 430,139" stroke="rgb(0, 0, 0)" stroke-linecap="square" stroke-width="3.0"/>
   <text fill="rgb(0, 0, 0)" font-family="SansSerif" font-size="12" x="407.0" y="143.0">Q</text>
   <ellipse cx="430.0" cy="139.0" fill="rgb(0, 0, 0)" rx="2.0" ry="2.0" stroke="none" stroke-width="3.0"/>
   <ellipse cx="425.0" cy="179.0" fill="none" rx="5.0" ry="5.0" stroke="rgb(0, 0, 0)" stroke-width="2.0"/>
   <ellipse cx="430.0" cy="179.0" fill="rgb(0, 0, 0)" rx="2.0" ry="2.0" stroke="none" stroke-width="2.0"/>
   <polyline fill="none" points="490,129 529,129" stroke="rgb(0, 0, 0)" stroke-linecap="square" stroke-width="2.0"/>
   <polyline fill="none" points="530,129 530,188" stroke="rgb(0, 0, 0)" stroke-linecap="square" stroke-width="2.0"/>
   <polyline fill="none" points="530,189 491,189" stroke="rgb(0, 0, 0)" stroke-linecap="square" stroke-width="2.0"/>
   <polyline fill="none" points="490,189 490,130" stroke="rgb(0, 0, 0)" stroke-linecap="square" stroke-width="2.0"/>
   <ellipse cx="510.0" cy="189.0" fill="rgb(0, 0, 0)" rx="2.0" ry="2.0" stroke="none" stroke-width="2.0"/>
   <text fill="rgb(128, 128, 128)" font-family="SansSerif" font-size="12" x="506.0" y="186.0">R</text>
   <ellipse cx="510.0" cy="129.0" fill="rgb(0, 0, 0)" rx="2.0" ry="2.0" stroke="none" stroke-width="2.0"/>
   <text fill="rgb(128, 128, 128)" font-family="SansSerif" font-size="12" x="506.0" y="144.0">S</text>
   <polyline fill="none" points="480,89 480,139 489,139" stroke="rgb(0, 0, 0)" stroke-linecap="square" stroke-width="3.0"/>
   <ellipse cx="480.0" cy="139.0" fill="rgb(0, 0, 0)" rx="2.0" ry="2.0" stroke="none" stroke-width="3.0"/>
   <text fill="rgb(0, 0, 0)" font-family="SansSerif" font-size="12" x="494.0" y="143.0">D</text>
   <polyline fill="none" points="491,175 498,179 491,183" stroke="rgb(0, 0, 0)" stroke-linecap="square" stroke-width="2.0"/>
   <polyline fill="none" points="480,179 489,179" stroke="rgb(0, 0, 0)" stroke-linecap="square" stroke-width="2.0"/>
   <ellipse cx="480.0" cy="179.0" fill="rgb(0, 0, 0)" rx="2.0" ry="2.0" stroke="none" stroke-width="2.0"/>
   <polyline fill="none" points="531,139 540,139 560,139 560,289" stroke="rgb(0, 0, 0)" stroke-linecap="square" stroke-width="3.0"/>
   <text fill="rgb(0, 0, 0)" font-family="SansSerif" font-size="12" x="517.0" y="143.0">Q</text>
   <ellipse cx="540.0" cy="139.0" fill="rgb(0, 0, 0)" rx="2.0" ry="2.0" stroke="none" stroke-width="3.0"/>
   <ellipse cx="535.0" cy="179.0" fill="none" rx="5.0" ry="5.0" stroke="rgb(0, 0, 0)" stroke-width="2.0"/>
   <ellipse cx="540.0" cy="179.0" fill="rgb(0, 0, 0)" rx="2.0" ry="2.0" stroke="none" stroke-width="2.0"/>
   <polyline fill="none" points="590,129 629,129" stroke="rgb(0, 0, 0)" stroke-linecap="square" stroke-width="2.0"/>
   <polyline fill="none" points="630,129 630,188" stroke="rgb(0, 0, 0)" stroke-linecap="square" stroke-width="2.0"/>
   <polyline fill="none" points="630,189 591,189" stroke="rgb(0, 0, 0)" stroke-linecap="square" stroke-width="2.0"/>
   <polyline fill="none" points="590,189 590,130" stroke="rgb(0, 0, 0)" stroke-linecap="square" stroke-width="2.0"/>
   <ellipse cx="610.0" cy="189.0" fill="rgb(0, 0, 0)" rx="2.0" ry="2.0" stroke="none" stroke-width="2.0"/>
   <text fill="rgb(128, 128, 128)" font-family="SansSerif" font-size="12" x="606.0" y="186.0">R</text>
   <ellipse cx="610.0" cy="129.0" fill="rgb(0, 0, 0)" rx="2.0" ry="2.0" stroke="none" stroke-width="2.0"/>
   <text fill="rgb(128, 128, 128)" font-family="SansSerif" font-size="12" x="606.0" y="144.0">S</text>
   <polyline fill="none" points="580,89 580,139 589,139" stroke="rgb(0, 0, 0)" stroke-linecap="square" stroke-width="3.0"/>
   <ellipse cx="580.0" cy="139.0" fill="rgb(0, 0, 0)" rx="2.0" ry="2.0" stroke="none" stroke-width="3.0"/>
   <text fill="rgb(0, 0, 0)" font-family="SansSerif" font-size="12" x="594.0" y="143.0">D</text>
   <polyline fill="none" points="591,175 598,179 591,183" stroke="rgb(0, 0, 0)" stroke-linecap="square" stroke-width="2.0"/>
   <polyline fill="none" points="580,179 589,179" stroke="rgb(0, 0, 0)" stroke-linecap="square" stroke-width="2.0"/>
   <ellipse cx="580.0" cy="179.0" fill="rgb(0, 0, 0)" rx="2.0" ry="2.0" stroke="none" stroke-width="2.0"/>
   <polyline fill="none" points="631,139 640,139 660,139 660,289" stroke="rgb(0, 0, 0)" stroke-linecap="square" stroke-width="3.0"/>
   <text fill="rgb(0, 0, 0)" font-family="SansSerif" font-size="12" x="617.0" y="143.0">Q</text>
   <ellipse cx="640.0" cy="139.0" fill="rgb(0, 0, 0)" rx="2.0" ry="2.0" stroke="none" stroke-width="3.0"/>
   <ellipse cx="635.0" cy="179.0" fill="none" rx="5.0" ry="5.0" stroke="rgb(0, 0, 0)" stroke-width="2.0"/>
   <ellipse cx="640.0" cy="179.0" fill="rgb(0, 0, 0)" rx="2.0" ry="2.0" stroke="none" stroke-width="2.0"/>
   <polyline fill="none" points="710,129 749,129" stroke="rgb(0, 0, 0)" stroke-linecap="square" stroke-width="2.0"/>
   <polyline fill="none" points="750,129 750,188" stroke="rgb(0, 0, 0)" stroke-linecap="square" stroke-width="2.0"/>
   <polyline fill="none" points="750,189 711,189" stroke="rgb(0, 0, 0)" stroke-linecap="square" stroke-width="2.0"/>
   <polyline fill="none" points="710,189 710,130" stroke="rgb(0, 0, 0)" stroke-linecap="square" stroke-width="2.0"/>
   <ellipse cx="730.0" cy="189.0" fill="rgb(0, 0, 0)" rx="2.0" ry="2.0" stroke="none" stroke-width="2.0"/>
   <text fill="rgb(128, 128, 128)" font-family="SansSerif" font-size="12" x="726.0" y="186.0">R</text>
   <ellipse cx="730.0" cy="129.0" fill="rgb(0, 0, 0)" rx="2.0" ry="2.0" stroke="none" stroke-width="2.0"/>
   <text fill="rgb(128, 128, 128)" font-family="SansSerif" font-size="12" x="726.0" y="144.0">S</text>
   <polyline fill="none" points="700,89 700,139 709,139" stroke="rgb(0, 0, 0)" stroke-linecap="square" stroke-width="3.0"/>
   <ellipse cx="700.0" cy="139.0" fill="rgb(0, 0, 0)" rx="2.0" ry="2.0" stroke="none" stroke-width="3.0"/>
   <text fill="rgb(0, 0, 0)" font-family="SansSerif" font-size="12" x="714.0" y="143.0">D</text>
   <polyline fill="none" points="711,175 718,179 711,183" stroke="rgb(0, 0, 0)" stroke-linecap="square" stroke-width="2.0"/>
   <polyline fill="none" points="700,179 709,179" stroke="rgb(0, 0, 0)" stroke-linecap="square" stroke-width="2.0"/>
   <ellipse cx="700.0" cy="179.0" fill="rgb(0, 0, 0)" rx="2.0" ry="2.0" stroke="none" stroke-width="2.0"/>
   <polyline fill="none" points="751,139 760,139 780,139 780,289" stroke="rgb(0, 0, 0)" stroke-linecap="square" stroke-width="3.0"/>
   <text fill="rgb(0, 0, 0)" font-family="SansSerif" font-size="12" x="737.0" y="143.0">Q</text>
   <ellipse cx="760.0" cy="139.0" fill="rgb(0, 0, 0)" rx="2.0" ry="2.0" stroke="none" stroke-width="3.0"/>
   <ellipse cx="755.0" cy="179.0" fill="none" rx="5.0" ry="5.0" stroke="rgb(0, 0, 0)" stroke-width="2.0"/>
   <ellipse cx="760.0" cy="179.0" fill="rgb(0, 0, 0)" rx="2.0" ry="2.0" stroke="none" stroke-width="2.0"/>
   <polyline fill="none" points="810,129 849,129" stroke="rgb(0, 0, 0)" stroke-linecap="square" stroke-width="2.0"/>
   <polyline fill="none" points="850,129 850,188" stroke="rgb(0, 0, 0)" stroke-linecap="square" stroke-width="2.0"/>
   <polyline fill="none" points="850,189 811,189" stroke="rgb(0, 0, 0)" stroke-linecap="square" stroke-width="2.0"/>
   <polyline fill="none" points="810,189 810,130" stroke="rgb(0, 0, 0)" stroke-linecap="square" stroke-width="2.0"/>
   <ellipse cx="830.0" cy="189.0" fill="rgb(0, 0, 0)" rx="2.0" ry="2.0" stroke="none" stroke-width="2.0"/>
   <text fill="rgb(128, 128, 128)" font-family="SansSerif" font-size="12" x="826.0" y="186.0">R</text>
   <ellipse cx="830.0" cy="129.0" fill="rgb(0, 0, 0)" rx="2.0" ry="2.0" stroke="none" stroke-width="2.0"/>
   <text fill="rgb(128, 128, 128)" font-family="SansSerif" font-size="12" x="826.0" y="144.0">S</text>
   <polyline fill="none" points="800,89 800,139 809,139" stroke="rgb(0, 0, 0)" stroke-linecap="square" stroke-width="3.0"/>
   <ellipse cx="800.0" cy="139.0" fill="rgb(0, 0, 0)" rx="2.0" ry="2.0" stroke="none" stroke-width="3.0"/>
   <text fill="rgb(0, 0, 0)" font-family="SansSerif" font-size="12" x="814.0" y="143.0">D</text>
   <polyline fill="none" points="811,175 818,179 811,183" stroke="rgb(0, 0, 0)" stroke-linecap="square" stroke-width="2.0"/>
   <polyline fill="none" points="800,179 809,179" stroke="rgb(0, 0, 0)" stroke-linecap="square" stroke-width="2.0"/>
   <ellipse cx="800.0" cy="179.0" fill="rgb(0, 0, 0)" rx="2.0" ry="2.0" stroke="none" stroke-width="2.0"/>
   <polyline fill="none" points="851,139 860,139 900,139 900,289" stroke="rgb(0, 0, 0)" stroke-linecap="square" stroke-width="3.0"/>
   <text fill="rgb(0, 0, 0)" font-family="SansSerif" font-size="12" x="837.0" y="143.0">Q</text>
   <ellipse cx="860.0" cy="139.0" fill="rgb(0, 0, 0)" rx="2.0" ry="2.0" stroke="none" stroke-width="3.0"/>
   <ellipse cx="855.0" cy="179.0" fill="none" rx="5.0" ry="5.0" stroke="rgb(0, 0, 0)" stroke-width="2.0"/>
   <ellipse cx="860.0" cy="179.0" fill="rgb(0, 0, 0)" rx="2.0" ry="2.0" stroke="none" stroke-width="2.0"/>
   <ellipse cx="900.0" cy="299.0" fill="none" rx="9.0" ry="9.0" stroke="rgb(0, 0, 0)" stroke-width="2.0"/>
   <ellipse cx="900.0" cy="289.0" fill="rgb(0, 0, 0)" rx="2.0" ry="2.0" stroke="none" stroke-width="1.0"/>
   <ellipse cx="1030.0" cy="299.0" fill="none" rx="9.0" ry="9.0" stroke="rgb(0, 0, 0)" stroke-width="2.0"/>
   <ellipse cx="1030.0" cy="289.0" fill="rgb(0, 0, 0)" rx="2.0" ry="2.0" stroke="none" stroke-width="1.0"/>
   <polygon fill="rgb(178, 178, 178)" points="60,239 77,239 80,242 80,259 63,259 60,256" stroke="none" stroke-linecap="square" stroke-width="1.0"/>
   <rect fill="rgb(255, 255, 255)" height="17" stroke="none" stroke-linecap="square" stroke-width="1.0" width="17" x="60" y="239"/>
   <polyline fill="none" points="60,239 76,239" stroke="rgb(0, 0, 0)" stroke-linecap="square" stroke-width="1.0"/>
   <polyline fill="none" points="77,239 77,255" stroke="rgb(0, 0, 0)" stroke-linecap="square" stroke-width="1.0"/>
   <polyline fill="none" points="60,256 60,240" stroke="rgb(0, 0, 0)" stroke-linecap="square" stroke-width="1.0"/>
   <polyline fill="none" points="61,256 77,256 80,259" stroke="rgb(0, 0, 0)" stroke-linecap="square" stroke-width="1.0"/>
   <polygon fill="none" points="60,239 77,239 80,242 80,259 63,259 60,256" stroke="rgb(0, 0, 0)" stroke-linecap="square" stroke-width="1.0"/>
   <text fill="rgb(0, 0, 0)" font-family="SansSerif" font-size="16" font-weight="bold" x="24.0" y="256.0">CLR</text>
   <ellipse cx="80.0" cy="249.0" fill="rgb(0, 0, 0)" rx="2.0" ry="2.0" stroke="none" stroke-width="1.0"/>
   <ellipse cx="240.0" cy="299.0" fill="none" rx="9.0" ry="9.0" stroke="rgb(0, 0, 0)" stroke-width="2.0"/>
   <ellipse cx="240.0" cy="289.0" fill="rgb(0, 0, 0)" rx="2.0" ry="2.0" stroke="none" stroke-width="1.0"/>
   <ellipse cx="350.0" cy="299.0" fill="none" rx="9.0" ry="9.0" stroke="rgb(0, 0, 0)" stroke-width="2.0"/>
   <ellipse cx="350.0" cy="289.0" fill="rgb(0, 0, 0)" rx="2.0" ry="2.0" stroke="none" stroke-width="1.0"/>
   <ellipse cx="460.0" cy="299.0" fill="none" rx="9.0" ry="9.0" stroke="rgb(0, 0, 0)" stroke-width="2.0"/>
   <ellipse cx="460.0" cy="289.0" fill="rgb(0, 0, 0)" rx="2.0" ry="2.0" stroke="none" stroke-width="1.0"/>
   <ellipse cx="560.0" cy="299.0" fill="none" rx="9.0" ry="9.0" stroke="rgb(0, 0, 0)" stroke-width="2.0"/>
   <ellipse cx="560.0" cy="289.0" fill="rgb(0, 0, 0)" rx="2.0" ry="2.0" stroke="none" stroke-width="1.0"/>
   <ellipse cx="660.0" cy="299.0" fill="none" rx="9.0" ry="9.0" stroke="rgb(0, 0, 0)" stroke-width="2.0"/>
   <ellipse cx="660.0" cy="289.0" fill="rgb(0, 0, 0)" rx="2.0" ry="2.0" stroke="none" stroke-width="1.0"/>
   <ellipse cx="780.0" cy="299.0" fill="none" rx="9.0" ry="9.0" stroke="rgb(0, 0, 0)" stroke-width="2.0"/>
   <ellipse cx="780.0" cy="289.0" fill="rgb(0, 0, 0)" rx="2.0" ry="2.0" stroke="none" stroke-width="1.0"/>
   <text fill="rgb(0, 0, 0)" font-family="SansSerif" font-size="16" font-weight="bold" x="880.0" y="324.0">Bit 7</text>
   <text fill="rgb(0, 0, 0)" font-family="SansSerif" font-size="16" font-weight="bold" x="954.0" y="114.0">LSB</text>
   <text fill="rgb(0, 0, 0)" font-family="SansSerif" font-size="16" font-weight="bold" x="1005.0" y="324.0">Bit 8</text>
   <text fill="rgb(0, 0, 0)" font-family="SansSerif" font-size="16" font-weight="bold" x="126.0" y="124.0">MSB</text>
   <text fill="rgb(0, 0, 0)" font-family="SansSerif" font-size="16" font-weight="bold" x="220.0" y="324.0">Bit 1</text>
   <text fill="rgb(0, 0, 0)" font-family="SansSerif" font-size="16" font-weight="bold" x="330.0" y="324.0">Bit 2</text>
   <text fill="rgb(0, 0, 0)" font-family="SansSerif" font-size="16" font-weight="bold" x="445.0" y="324.0">Bit 3</text>
   <text fill="rgb(0, 0, 0)" font-family="SansSerif" font-size="16" font-weight="bold" x="540.0" y="324.0">Bit 4</text>
   <text fill="rgb(0, 0, 0)" font-family="SansSerif" font-size="16" font-weight="bold" x="640.0" y="324.0">Bit 5</text>
   <text fill="rgb(0, 0, 0)" font-family="SansSerif" font-size="16" font-weight="bold" x="765.0" y="324.0">Bit 6</text>
   <text fill="rgb(0, 0, 0)" font-family="SansSerif" font-size="16" font-weight="bold" x="10.0" y="24.0">8-Bit Parallel Out Shift Register (PIPO)</text>
</svg>
