<?xml version="1.0" encoding="UTF-8" standalone="no"?>
<svg xmlns="http://www.w3.org/2000/svg" version="1.1" viewBox="0 0 1328 266">
   <polyline fill="none" points="401,106 401,216" stroke="rgb(0, 0, 0)" stroke-linecap="square" stroke-width="3.0"/>
   <polyline fill="none" points="61,216 281,216 401,216 521,216 641,216 641,106" stroke="rgb(0, 0, 0)" stroke-linecap="square" stroke-width="3.0"/>
   <polyline fill="none" points="521,106 521,216" stroke="rgb(0, 0, 0)" stroke-linecap="square" stroke-width="3.0"/>
   <polyline fill="none" points="281,106 281,216" stroke="rgb(0, 0, 0)" stroke-linecap="square" stroke-width="3.0"/>
   <polyline fill="none" points="641,216 771,216 881,216 881,106" stroke="rgb(0, 0, 0)" stroke-linecap="square" stroke-width="3.0"/>
   <polyline fill="none" points="251,96 201,96 201,146 141,146" stroke="rgb(0, 0, 0)" stroke-linecap="square" stroke-width="3.0"/>
   <polyline fill="none" points="961,96 961,146 1071,146 1181,146 1181,96" stroke="rgb(0, 0, 0)" stroke-linecap="square" stroke-width="3.0"/>
   <polyline fill="none" points="1051,36 1051,56" stroke="rgb(0, 0, 0)" stroke-linecap="square" stroke-width="3.0"/>
   <polyline fill="none" points="831,36 831,56" stroke="rgb(0, 0, 0)" stroke-linecap="square" stroke-width="3.0"/>
   <polyline fill="none" points="201,146 371,146 491,146 611,146 731,146 851,146 961,146" stroke="rgb(0, 0, 0)" stroke-linecap="square" stroke-width="3.0"/>
   <polyline fill="none" points="881,216 991,216 1101,216 1101,106" stroke="rgb(0, 0, 0)" stroke-linecap="square" stroke-width="3.0"/>
   <polyline fill="none" points="471,36 471,56" stroke="rgb(0, 0, 0)" stroke-linecap="square" stroke-width="3.0"/>
   <polyline fill="none" points="591,36 591,56" stroke="rgb(0, 0, 0)" stroke-linecap="square" stroke-width="3.0"/>
   <polyline fill="none" points="1071,96 1071,146" stroke="rgb(0, 0, 0)" stroke-linecap="square" stroke-width="3.0"/>
   <polyline fill="none" points="61,146 81,146 111,146" stroke="rgb(0, 0, 0)" stroke-linecap="square" stroke-width="3.0"/>
   <polyline fill="none" points="771,106 771,216" stroke="rgb(0, 0, 0)" stroke-linecap="square" stroke-width="3.0"/>
   <polyline fill="none" points="111,106 81,106 81,146" stroke="rgb(0, 0, 0)" stroke-linecap="square" stroke-width="3.0"/>
   <polyline fill="none" points="371,96 371,146" stroke="rgb(0, 0, 0)" stroke-linecap="square" stroke-width="3.0"/>
   <polyline fill="none" points="611,96 611,146" stroke="rgb(0, 0, 0)" stroke-linecap="square" stroke-width="3.0"/>
   <polyline fill="none" points="1211,106 1211,216 1101,216" stroke="rgb(0, 0, 0)" stroke-linecap="square" stroke-width="3.0"/>
   <polyline fill="none" points="491,96 491,146" stroke="rgb(0, 0, 0)" stroke-linecap="square" stroke-width="3.0"/>
   <polyline fill="none" points="851,96 851,146" stroke="rgb(0, 0, 0)" stroke-linecap="square" stroke-width="3.0"/>
   <polyline fill="none" points="991,106 991,216" stroke="rgb(0, 0, 0)" stroke-linecap="square" stroke-width="3.0"/>
   <polyline fill="none" points="741,96 731,96 731,146" stroke="rgb(0, 0, 0)" stroke-linecap="square" stroke-width="3.0"/>
   <ellipse cx="611.0" cy="146.0" fill="rgb(0, 0, 0)" rx="5.0" ry="5.0" stroke="none" stroke-width="3.0"/>
   <ellipse cx="851.0" cy="146.0" fill="rgb(0, 0, 0)" rx="5.0" ry="5.0" stroke="none" stroke-width="3.0"/>
   <ellipse cx="591.0" cy="56.0" fill="rgb(0, 0, 0)" rx="5.0" ry="5.0" stroke="none" stroke-width="3.0"/>
   <ellipse cx="1161.0" cy="56.0" fill="rgb(0, 0, 0)" rx="5.0" ry="5.0" stroke="none" stroke-width="3.0"/>
   <ellipse cx="831.0" cy="56.0" fill="rgb(0, 0, 0)" rx="5.0" ry="5.0" stroke="none" stroke-width="3.0"/>
   <ellipse cx="991.0" cy="216.0" fill="rgb(0, 0, 0)" rx="5.0" ry="5.0" stroke="none" stroke-width="3.0"/>
   <ellipse cx="281.0" cy="216.0" fill="rgb(0, 0, 0)" rx="5.0" ry="5.0" stroke="none" stroke-width="3.0"/>
   <ellipse cx="201.0" cy="146.0" fill="rgb(0, 0, 0)" rx="5.0" ry="5.0" stroke="none" stroke-width="3.0"/>
   <ellipse cx="521.0" cy="216.0" fill="rgb(0, 0, 0)" rx="5.0" ry="5.0" stroke="none" stroke-width="3.0"/>
   <ellipse cx="961.0" cy="146.0" fill="rgb(0, 0, 0)" rx="5.0" ry="5.0" stroke="none" stroke-width="3.0"/>
   <ellipse cx="491.0" cy="146.0" fill="rgb(0, 0, 0)" rx="5.0" ry="5.0" stroke="none" stroke-width="3.0"/>
   <ellipse cx="731.0" cy="146.0" fill="rgb(0, 0, 0)" rx="5.0" ry="5.0" stroke="none" stroke-width="3.0"/>
   <ellipse cx="1101.0" cy="216.0" fill="rgb(0, 0, 0)" rx="5.0" ry="5.0" stroke="none" stroke-width="3.0"/>
   <ellipse cx="771.0" cy="216.0" fill="rgb(0, 0, 0)" rx="5.0" ry="5.0" stroke="none" stroke-width="3.0"/>
   <ellipse cx="471.0" cy="56.0" fill="rgb(0, 0, 0)" rx="5.0" ry="5.0" stroke="none" stroke-width="3.0"/>
   <ellipse cx="1071.0" cy="146.0" fill="rgb(0, 0, 0)" rx="5.0" ry="5.0" stroke="none" stroke-width="3.0"/>
   <ellipse cx="711.0" cy="56.0" fill="rgb(0, 0, 0)" rx="5.0" ry="5.0" stroke="none" stroke-width="3.0"/>
   <ellipse cx="951.0" cy="56.0" fill="rgb(0, 0, 0)" rx="5.0" ry="5.0" stroke="none" stroke-width="3.0"/>
   <ellipse cx="81.0" cy="146.0" fill="rgb(0, 0, 0)" rx="5.0" ry="5.0" stroke="none" stroke-width="3.0"/>
   <ellipse cx="401.0" cy="216.0" fill="rgb(0, 0, 0)" rx="5.0" ry="5.0" stroke="none" stroke-width="3.0"/>
   <ellipse cx="641.0" cy="216.0" fill="rgb(0, 0, 0)" rx="5.0" ry="5.0" stroke="none" stroke-width="3.0"/>
   <ellipse cx="1051.0" cy="56.0" fill="rgb(0, 0, 0)" rx="5.0" ry="5.0" stroke="none" stroke-width="3.0"/>
   <ellipse cx="371.0" cy="146.0" fill="rgb(0, 0, 0)" rx="5.0" ry="5.0" stroke="none" stroke-width="3.0"/>
   <ellipse cx="341.0" cy="56.0" fill="rgb(0, 0, 0)" rx="5.0" ry="5.0" stroke="none" stroke-width="3.0"/>
   <ellipse cx="881.0" cy="216.0" fill="rgb(0, 0, 0)" rx="5.0" ry="5.0" stroke="none" stroke-width="3.0"/>
   <polyline fill="none" points="41,136 60,136" stroke="rgb(0, 0, 0)" stroke-linecap="square" stroke-width="2.0"/>
   <polyline fill="none" points="61,136 61,155" stroke="rgb(0, 0, 0)" stroke-linecap="square" stroke-width="2.0"/>
   <polyline fill="none" points="61,156 42,156" stroke="rgb(0, 0, 0)" stroke-linecap="square" stroke-width="2.0"/>
   <polyline fill="none" points="41,156 41,137" stroke="rgb(0, 0, 0)" stroke-linecap="square" stroke-width="2.0"/>
   <text fill="rgb(0, 0, 0)" font-family="SansSerif" font-size="16" font-weight="bold" x="6.0" y="153.0">CLK</text>
   <polyline fill="none" points="45,146 45,142 51,142 51,150 57,150 57,146" stroke="rgb(0, 0, 0)" stroke-linecap="square" stroke-width="2.0"/>
   <ellipse cx="61.0" cy="146.0" fill="rgb(0, 0, 0)" rx="2.0" ry="2.0" stroke="none" stroke-width="2.0"/>
   <polygon fill="none" points="131,146 112,139 112,153" stroke="rgb(0, 0, 0)" stroke-linecap="square" stroke-width="2.0"/>
   <ellipse cx="136.0" cy="146.0" fill="none" rx="4.5" ry="4.5" stroke="rgb(0, 0, 0)" stroke-width="2.0"/>
   <ellipse cx="141.0" cy="146.0" fill="rgb(0, 0, 0)" rx="2.0" ry="2.0" stroke="none" stroke-width="2.0"/>
   <ellipse cx="111.0" cy="146.0" fill="rgb(0, 0, 0)" rx="2.0" ry="2.0" stroke="none" stroke-width="2.0"/>
   <polyline fill="none" points="971,46 1010,46" stroke="rgb(0, 0, 0)" stroke-linecap="square" stroke-width="2.0"/>
   <polyline fill="none" points="1011,46 1011,105" stroke="rgb(0, 0, 0)" stroke-linecap="square" stroke-width="2.0"/>
   <polyline fill="none" points="1011,106 972,106" stroke="rgb(0, 0, 0)" stroke-linecap="square" stroke-width="2.0"/>
   <polyline fill="none" points="971,106 971,47" stroke="rgb(0, 0, 0)" stroke-linecap="square" stroke-width="2.0"/>
   <ellipse cx="991.0" cy="106.0" fill="rgb(0, 0, 0)" rx="2.0" ry="2.0" stroke="none" stroke-width="2.0"/>
   <text fill="rgb(128, 128, 128)" font-family="SansSerif" font-size="12" x="987.0" y="103.0">R</text>
   <ellipse cx="991.0" cy="46.0" fill="rgb(0, 0, 0)" rx="2.0" ry="2.0" stroke="none" stroke-width="2.0"/>
   <text fill="rgb(128, 128, 128)" font-family="SansSerif" font-size="12" x="987.0" y="61.0">S</text>
   <polyline fill="none" points="951,56 961,56 970,56" stroke="rgb(0, 0, 0)" stroke-linecap="square" stroke-width="3.0"/>
   <ellipse cx="961.0" cy="56.0" fill="rgb(0, 0, 0)" rx="2.0" ry="2.0" stroke="none" stroke-width="3.0"/>
   <text fill="rgb(0, 0, 0)" font-family="SansSerif" font-size="12" x="975.0" y="60.0">D</text>
   <polyline fill="none" points="972,92 979,96 972,100" stroke="rgb(0, 0, 0)" stroke-linecap="square" stroke-width="2.0"/>
   <polyline fill="none" points="961,96 970,96" stroke="rgb(0, 0, 0)" stroke-linecap="square" stroke-width="2.0"/>
   <ellipse cx="961.0" cy="96.0" fill="rgb(0, 0, 0)" rx="2.0" ry="2.0" stroke="none" stroke-width="2.0"/>
   <text fill="rgb(0, 0, 0)" font-family="SansSerif" font-size="12" x="998.0" y="60.0">Q</text>
   <ellipse cx="1021.0" cy="56.0" fill="rgb(0, 0, 0)" rx="2.0" ry="2.0" stroke="none" stroke-width="3.0"/>
   <ellipse cx="1016.0" cy="96.0" fill="none" rx="5.0" ry="5.0" stroke="rgb(0, 0, 0)" stroke-width="2.0"/>
   <ellipse cx="1021.0" cy="96.0" fill="rgb(0, 0, 0)" rx="2.0" ry="2.0" stroke="none" stroke-width="2.0"/>
   <polyline fill="none" points="1081,46 1120,46" stroke="rgb(0, 0, 0)" stroke-linecap="square" stroke-width="2.0"/>
   <polyline fill="none" points="1121,46 1121,105" stroke="rgb(0, 0, 0)" stroke-linecap="square" stroke-width="2.0"/>
   <polyline fill="none" points="1121,106 1082,106" stroke="rgb(0, 0, 0)" stroke-linecap="square" stroke-width="2.0"/>
   <polyline fill="none" points="1081,106 1081,47" stroke="rgb(0, 0, 0)" stroke-linecap="square" stroke-width="2.0"/>
   <ellipse cx="1101.0" cy="106.0" fill="rgb(0, 0, 0)" rx="2.0" ry="2.0" stroke="none" stroke-width="2.0"/>
   <text fill="rgb(128, 128, 128)" font-family="SansSerif" font-size="12" x="1097.0" y="103.0">R</text>
   <ellipse cx="1101.0" cy="46.0" fill="rgb(0, 0, 0)" rx="2.0" ry="2.0" stroke="none" stroke-width="2.0"/>
   <text fill="rgb(128, 128, 128)" font-family="SansSerif" font-size="12" x="1097.0" y="61.0">S</text>
   <polyline fill="none" points="1012,56 1021,56 1051,56 1071,56 1080,56" stroke="rgb(0, 0, 0)" stroke-linecap="square" stroke-width="3.0"/>
   <ellipse cx="1071.0" cy="56.0" fill="rgb(0, 0, 0)" rx="2.0" ry="2.0" stroke="none" stroke-width="3.0"/>
   <text fill="rgb(0, 0, 0)" font-family="SansSerif" font-size="12" x="1085.0" y="60.0">D</text>
   <polyline fill="none" points="1082,92 1089,96 1082,100" stroke="rgb(0, 0, 0)" stroke-linecap="square" stroke-width="2.0"/>
   <polyline fill="none" points="1071,96 1080,96" stroke="rgb(0, 0, 0)" stroke-linecap="square" stroke-width="2.0"/>
   <ellipse cx="1071.0" cy="96.0" fill="rgb(0, 0, 0)" rx="2.0" ry="2.0" stroke="none" stroke-width="2.0"/>
   <polyline fill="none" points="1122,56 1131,56 1161,56 1161,36" stroke="rgb(0, 0, 0)" stroke-linecap="square" stroke-width="3.0"/>
   <text fill="rgb(0, 0, 0)" font-family="SansSerif" font-size="12" x="1108.0" y="60.0">Q</text>
   <ellipse cx="1131.0" cy="56.0" fill="rgb(0, 0, 0)" rx="2.0" ry="2.0" stroke="none" stroke-width="3.0"/>
   <ellipse cx="1126.0" cy="96.0" fill="none" rx="5.0" ry="5.0" stroke="rgb(0, 0, 0)" stroke-width="2.0"/>
   <ellipse cx="1131.0" cy="96.0" fill="rgb(0, 0, 0)" rx="2.0" ry="2.0" stroke="none" stroke-width="2.0"/>
   <polyline fill="none" points="1191,46 1230,46" stroke="rgb(0, 0, 0)" stroke-linecap="square" stroke-width="2.0"/>
   <polyline fill="none" points="1231,46 1231,105" stroke="rgb(0, 0, 0)" stroke-linecap="square" stroke-width="2.0"/>
   <polyline fill="none" points="1231,106 1192,106" stroke="rgb(0, 0, 0)" stroke-linecap="square" stroke-width="2.0"/>
   <polyline fill="none" points="1191,106 1191,47" stroke="rgb(0, 0, 0)" stroke-linecap="square" stroke-width="2.0"/>
   <ellipse cx="1211.0" cy="106.0" fill="rgb(0, 0, 0)" rx="2.0" ry="2.0" stroke="none" stroke-width="2.0"/>
   <text fill="rgb(128, 128, 128)" font-family="SansSerif" font-size="12" x="1207.0" y="103.0">R</text>
   <ellipse cx="1211.0" cy="46.0" fill="rgb(0, 0, 0)" rx="2.0" ry="2.0" stroke="none" stroke-width="2.0"/>
   <text fill="rgb(128, 128, 128)" font-family="SansSerif" font-size="12" x="1207.0" y="61.0">S</text>
   <polyline fill="none" points="1161,56 1181,56 1190,56" stroke="rgb(0, 0, 0)" stroke-linecap="square" stroke-width="3.0"/>
   <ellipse cx="1181.0" cy="56.0" fill="rgb(0, 0, 0)" rx="2.0" ry="2.0" stroke="none" stroke-width="3.0"/>
   <text fill="rgb(0, 0, 0)" font-family="SansSerif" font-size="12" x="1195.0" y="60.0">D</text>
   <polyline fill="none" points="1192,92 1199,96 1192,100" stroke="rgb(0, 0, 0)" stroke-linecap="square" stroke-width="2.0"/>
   <polyline fill="none" points="1181,96 1190,96" stroke="rgb(0, 0, 0)" stroke-linecap="square" stroke-width="2.0"/>
   <ellipse cx="1181.0" cy="96.0" fill="rgb(0, 0, 0)" rx="2.0" ry="2.0" stroke="none" stroke-width="2.0"/>
   <polyline fill="none" points="1232,56 1241,56 1291,56 1291,36" stroke="rgb(0, 0, 0)" stroke-linecap="square" stroke-width="3.0"/>
   <text fill="rgb(0, 0, 0)" font-family="SansSerif" font-size="12" x="1218.0" y="60.0">Q</text>
   <ellipse cx="1241.0" cy="56.0" fill="rgb(0, 0, 0)" rx="2.0" ry="2.0" stroke="none" stroke-width="3.0"/>
   <ellipse cx="1236.0" cy="96.0" fill="none" rx="5.0" ry="5.0" stroke="rgb(0, 0, 0)" stroke-width="2.0"/>
   <ellipse cx="1241.0" cy="96.0" fill="rgb(0, 0, 0)" rx="2.0" ry="2.0" stroke="none" stroke-width="2.0"/>
   <polyline fill="none" points="261,46 300,46" stroke="rgb(0, 0, 0)" stroke-linecap="square" stroke-width="2.0"/>
   <polyline fill="none" points="301,46 301,105" stroke="rgb(0, 0, 0)" stroke-linecap="square" stroke-width="2.0"/>
   <polyline fill="none" points="301,106 262,106" stroke="rgb(0, 0, 0)" stroke-linecap="square" stroke-width="2.0"/>
   <polyline fill="none" points="261,106 261,47" stroke="rgb(0, 0, 0)" stroke-linecap="square" stroke-width="2.0"/>
   <ellipse cx="281.0" cy="106.0" fill="rgb(0, 0, 0)" rx="2.0" ry="2.0" stroke="none" stroke-width="2.0"/>
   <text fill="rgb(128, 128, 128)" font-family="SansSerif" font-size="12" x="277.0" y="103.0">R</text>
   <ellipse cx="281.0" cy="46.0" fill="rgb(0, 0, 0)" rx="2.0" ry="2.0" stroke="none" stroke-width="2.0"/>
   <text fill="rgb(128, 128, 128)" font-family="SansSerif" font-size="12" x="277.0" y="61.0">S</text>
   <polyline fill="none" points="61,56 251,56 260,56" stroke="rgb(0, 0, 0)" stroke-linecap="square" stroke-width="3.0"/>
   <ellipse cx="251.0" cy="56.0" fill="rgb(0, 0, 0)" rx="2.0" ry="2.0" stroke="none" stroke-width="3.0"/>
   <text fill="rgb(0, 0, 0)" font-family="SansSerif" font-size="12" x="265.0" y="60.0">D</text>
   <polyline fill="none" points="262,92 269,96 262,100" stroke="rgb(0, 0, 0)" stroke-linecap="square" stroke-width="2.0"/>
   <polyline fill="none" points="251,96 260,96" stroke="rgb(0, 0, 0)" stroke-linecap="square" stroke-width="2.0"/>
   <ellipse cx="251.0" cy="96.0" fill="rgb(0, 0, 0)" rx="2.0" ry="2.0" stroke="none" stroke-width="2.0"/>
   <polyline fill="none" points="302,56 311,56 341,56" stroke="rgb(0, 0, 0)" stroke-linecap="square" stroke-width="3.0"/>
   <text fill="rgb(0, 0, 0)" font-family="SansSerif" font-size="12" x="288.0" y="60.0">Q</text>
   <ellipse cx="311.0" cy="56.0" fill="rgb(0, 0, 0)" rx="2.0" ry="2.0" stroke="none" stroke-width="3.0"/>
   <ellipse cx="306.0" cy="96.0" fill="none" rx="5.0" ry="5.0" stroke="rgb(0, 0, 0)" stroke-width="2.0"/>
   <ellipse cx="311.0" cy="96.0" fill="rgb(0, 0, 0)" rx="2.0" ry="2.0" stroke="none" stroke-width="2.0"/>
   <polyline fill="none" points="381,46 420,46" stroke="rgb(0, 0, 0)" stroke-linecap="square" stroke-width="2.0"/>
   <polyline fill="none" points="421,46 421,105" stroke="rgb(0, 0, 0)" stroke-linecap="square" stroke-width="2.0"/>
   <polyline fill="none" points="421,106 382,106" stroke="rgb(0, 0, 0)" stroke-linecap="square" stroke-width="2.0"/>
   <polyline fill="none" points="381,106 381,47" stroke="rgb(0, 0, 0)" stroke-linecap="square" stroke-width="2.0"/>
   <ellipse cx="401.0" cy="106.0" fill="rgb(0, 0, 0)" rx="2.0" ry="2.0" stroke="none" stroke-width="2.0"/>
   <text fill="rgb(128, 128, 128)" font-family="SansSerif" font-size="12" x="397.0" y="103.0">R</text>
   <ellipse cx="401.0" cy="46.0" fill="rgb(0, 0, 0)" rx="2.0" ry="2.0" stroke="none" stroke-width="2.0"/>
   <text fill="rgb(128, 128, 128)" font-family="SansSerif" font-size="12" x="397.0" y="61.0">S</text>
   <polyline fill="none" points="341,36 341,56 371,56 380,56" stroke="rgb(0, 0, 0)" stroke-linecap="square" stroke-width="3.0"/>
   <ellipse cx="371.0" cy="56.0" fill="rgb(0, 0, 0)" rx="2.0" ry="2.0" stroke="none" stroke-width="3.0"/>
   <text fill="rgb(0, 0, 0)" font-family="SansSerif" font-size="12" x="385.0" y="60.0">D</text>
   <polyline fill="none" points="382,92 389,96 382,100" stroke="rgb(0, 0, 0)" stroke-linecap="square" stroke-width="2.0"/>
   <polyline fill="none" points="371,96 380,96" stroke="rgb(0, 0, 0)" stroke-linecap="square" stroke-width="2.0"/>
   <ellipse cx="371.0" cy="96.0" fill="rgb(0, 0, 0)" rx="2.0" ry="2.0" stroke="none" stroke-width="2.0"/>
   <text fill="rgb(0, 0, 0)" font-family="SansSerif" font-size="12" x="408.0" y="60.0">Q</text>
   <ellipse cx="431.0" cy="56.0" fill="rgb(0, 0, 0)" rx="2.0" ry="2.0" stroke="none" stroke-width="3.0"/>
   <ellipse cx="426.0" cy="96.0" fill="none" rx="5.0" ry="5.0" stroke="rgb(0, 0, 0)" stroke-width="2.0"/>
   <ellipse cx="431.0" cy="96.0" fill="rgb(0, 0, 0)" rx="2.0" ry="2.0" stroke="none" stroke-width="2.0"/>
   <polyline fill="none" points="501,46 540,46" stroke="rgb(0, 0, 0)" stroke-linecap="square" stroke-width="2.0"/>
   <polyline fill="none" points="541,46 541,105" stroke="rgb(0, 0, 0)" stroke-linecap="square" stroke-width="2.0"/>
   <polyline fill="none" points="541,106 502,106" stroke="rgb(0, 0, 0)" stroke-linecap="square" stroke-width="2.0"/>
   <polyline fill="none" points="501,106 501,47" stroke="rgb(0, 0, 0)" stroke-linecap="square" stroke-width="2.0"/>
   <ellipse cx="521.0" cy="106.0" fill="rgb(0, 0, 0)" rx="2.0" ry="2.0" stroke="none" stroke-width="2.0"/>
   <text fill="rgb(128, 128, 128)" font-family="SansSerif" font-size="12" x="517.0" y="103.0">R</text>
   <ellipse cx="521.0" cy="46.0" fill="rgb(0, 0, 0)" rx="2.0" ry="2.0" stroke="none" stroke-width="2.0"/>
   <text fill="rgb(128, 128, 128)" font-family="SansSerif" font-size="12" x="517.0" y="61.0">S</text>
   <polyline fill="none" points="422,56 431,56 471,56 491,56 500,56" stroke="rgb(0, 0, 0)" stroke-linecap="square" stroke-width="3.0"/>
   <ellipse cx="491.0" cy="56.0" fill="rgb(0, 0, 0)" rx="2.0" ry="2.0" stroke="none" stroke-width="3.0"/>
   <text fill="rgb(0, 0, 0)" font-family="SansSerif" font-size="12" x="505.0" y="60.0">D</text>
   <polyline fill="none" points="502,92 509,96 502,100" stroke="rgb(0, 0, 0)" stroke-linecap="square" stroke-width="2.0"/>
   <polyline fill="none" points="491,96 500,96" stroke="rgb(0, 0, 0)" stroke-linecap="square" stroke-width="2.0"/>
   <ellipse cx="491.0" cy="96.0" fill="rgb(0, 0, 0)" rx="2.0" ry="2.0" stroke="none" stroke-width="2.0"/>
   <text fill="rgb(0, 0, 0)" font-family="SansSerif" font-size="12" x="528.0" y="60.0">Q</text>
   <ellipse cx="551.0" cy="56.0" fill="rgb(0, 0, 0)" rx="2.0" ry="2.0" stroke="none" stroke-width="3.0"/>
   <ellipse cx="546.0" cy="96.0" fill="none" rx="5.0" ry="5.0" stroke="rgb(0, 0, 0)" stroke-width="2.0"/>
   <ellipse cx="551.0" cy="96.0" fill="rgb(0, 0, 0)" rx="2.0" ry="2.0" stroke="none" stroke-width="2.0"/>
   <polyline fill="none" points="621,46 660,46" stroke="rgb(0, 0, 0)" stroke-linecap="square" stroke-width="2.0"/>
   <polyline fill="none" points="661,46 661,105" stroke="rgb(0, 0, 0)" stroke-linecap="square" stroke-width="2.0"/>
   <polyline fill="none" points="661,106 622,106" stroke="rgb(0, 0, 0)" stroke-linecap="square" stroke-width="2.0"/>
   <polyline fill="none" points="621,106 621,47" stroke="rgb(0, 0, 0)" stroke-linecap="square" stroke-width="2.0"/>
   <ellipse cx="641.0" cy="106.0" fill="rgb(0, 0, 0)" rx="2.0" ry="2.0" stroke="none" stroke-width="2.0"/>
   <text fill="rgb(128, 128, 128)" font-family="SansSerif" font-size="12" x="637.0" y="103.0">R</text>
   <ellipse cx="641.0" cy="46.0" fill="rgb(0, 0, 0)" rx="2.0" ry="2.0" stroke="none" stroke-width="2.0"/>
   <text fill="rgb(128, 128, 128)" font-family="SansSerif" font-size="12" x="637.0" y="61.0">S</text>
   <polyline fill="none" points="542,56 551,56 591,56 611,56 620,56" stroke="rgb(0, 0, 0)" stroke-linecap="square" stroke-width="3.0"/>
   <ellipse cx="611.0" cy="56.0" fill="rgb(0, 0, 0)" rx="2.0" ry="2.0" stroke="none" stroke-width="3.0"/>
   <text fill="rgb(0, 0, 0)" font-family="SansSerif" font-size="12" x="625.0" y="60.0">D</text>
   <polyline fill="none" points="622,92 629,96 622,100" stroke="rgb(0, 0, 0)" stroke-linecap="square" stroke-width="2.0"/>
   <polyline fill="none" points="611,96 620,96" stroke="rgb(0, 0, 0)" stroke-linecap="square" stroke-width="2.0"/>
   <ellipse cx="611.0" cy="96.0" fill="rgb(0, 0, 0)" rx="2.0" ry="2.0" stroke="none" stroke-width="2.0"/>
   <polyline fill="none" points="662,56 671,56 711,56 711,36" stroke="rgb(0, 0, 0)" stroke-linecap="square" stroke-width="3.0"/>
   <text fill="rgb(0, 0, 0)" font-family="SansSerif" font-size="12" x="648.0" y="60.0">Q</text>
   <ellipse cx="671.0" cy="56.0" fill="rgb(0, 0, 0)" rx="2.0" ry="2.0" stroke="none" stroke-width="3.0"/>
   <ellipse cx="666.0" cy="96.0" fill="none" rx="5.0" ry="5.0" stroke="rgb(0, 0, 0)" stroke-width="2.0"/>
   <ellipse cx="671.0" cy="96.0" fill="rgb(0, 0, 0)" rx="2.0" ry="2.0" stroke="none" stroke-width="2.0"/>
   <polyline fill="none" points="751,46 790,46" stroke="rgb(0, 0, 0)" stroke-linecap="square" stroke-width="2.0"/>
   <polyline fill="none" points="791,46 791,105" stroke="rgb(0, 0, 0)" stroke-linecap="square" stroke-width="2.0"/>
   <polyline fill="none" points="791,106 752,106" stroke="rgb(0, 0, 0)" stroke-linecap="square" stroke-width="2.0"/>
   <polyline fill="none" points="751,106 751,47" stroke="rgb(0, 0, 0)" stroke-linecap="square" stroke-width="2.0"/>
   <ellipse cx="771.0" cy="106.0" fill="rgb(0, 0, 0)" rx="2.0" ry="2.0" stroke="none" stroke-width="2.0"/>
   <text fill="rgb(128, 128, 128)" font-family="SansSerif" font-size="12" x="767.0" y="103.0">R</text>
   <ellipse cx="771.0" cy="46.0" fill="rgb(0, 0, 0)" rx="2.0" ry="2.0" stroke="none" stroke-width="2.0"/>
   <text fill="rgb(128, 128, 128)" font-family="SansSerif" font-size="12" x="767.0" y="61.0">S</text>
   <polyline fill="none" points="711,56 741,56 750,56" stroke="rgb(0, 0, 0)" stroke-linecap="square" stroke-width="3.0"/>
   <ellipse cx="741.0" cy="56.0" fill="rgb(0, 0, 0)" rx="2.0" ry="2.0" stroke="none" stroke-width="3.0"/>
   <text fill="rgb(0, 0, 0)" font-family="SansSerif" font-size="12" x="755.0" y="60.0">D</text>
   <polyline fill="none" points="752,92 759,96 752,100" stroke="rgb(0, 0, 0)" stroke-linecap="square" stroke-width="2.0"/>
   <polyline fill="none" points="741,96 750,96" stroke="rgb(0, 0, 0)" stroke-linecap="square" stroke-width="2.0"/>
   <ellipse cx="741.0" cy="96.0" fill="rgb(0, 0, 0)" rx="2.0" ry="2.0" stroke="none" stroke-width="2.0"/>
   <text fill="rgb(0, 0, 0)" font-family="SansSerif" font-size="12" x="778.0" y="60.0">Q</text>
   <ellipse cx="801.0" cy="56.0" fill="rgb(0, 0, 0)" rx="2.0" ry="2.0" stroke="none" stroke-width="3.0"/>
   <ellipse cx="796.0" cy="96.0" fill="none" rx="5.0" ry="5.0" stroke="rgb(0, 0, 0)" stroke-width="2.0"/>
   <ellipse cx="801.0" cy="96.0" fill="rgb(0, 0, 0)" rx="2.0" ry="2.0" stroke="none" stroke-width="2.0"/>
   <polyline fill="none" points="861,46 900,46" stroke="rgb(0, 0, 0)" stroke-linecap="square" stroke-width="2.0"/>
   <polyline fill="none" points="901,46 901,105" stroke="rgb(0, 0, 0)" stroke-linecap="square" stroke-width="2.0"/>
   <polyline fill="none" points="901,106 862,106" stroke="rgb(0, 0, 0)" stroke-linecap="square" stroke-width="2.0"/>
   <polyline fill="none" points="861,106 861,47" stroke="rgb(0, 0, 0)" stroke-linecap="square" stroke-width="2.0"/>
   <ellipse cx="881.0" cy="106.0" fill="rgb(0, 0, 0)" rx="2.0" ry="2.0" stroke="none" stroke-width="2.0"/>
   <text fill="rgb(128, 128, 128)" font-family="SansSerif" font-size="12" x="877.0" y="103.0">R</text>
   <ellipse cx="881.0" cy="46.0" fill="rgb(0, 0, 0)" rx="2.0" ry="2.0" stroke="none" stroke-width="2.0"/>
   <text fill="rgb(128, 128, 128)" font-family="SansSerif" font-size="12" x="877.0" y="61.0">S</text>
   <polyline fill="none" points="792,56 801,56 831,56 851,56 860,56" stroke="rgb(0, 0, 0)" stroke-linecap="square" stroke-width="3.0"/>
   <ellipse cx="851.0" cy="56.0" fill="rgb(0, 0, 0)" rx="2.0" ry="2.0" stroke="none" stroke-width="3.0"/>
   <text fill="rgb(0, 0, 0)" font-family="SansSerif" font-size="12" x="865.0" y="60.0">D</text>
   <polyline fill="none" points="862,92 869,96 862,100" stroke="rgb(0, 0, 0)" stroke-linecap="square" stroke-width="2.0"/>
   <polyline fill="none" points="851,96 860,96" stroke="rgb(0, 0, 0)" stroke-linecap="square" stroke-width="2.0"/>
   <ellipse cx="851.0" cy="96.0" fill="rgb(0, 0, 0)" rx="2.0" ry="2.0" stroke="none" stroke-width="2.0"/>
   <polyline fill="none" points="902,56 911,56 951,56 951,36" stroke="rgb(0, 0, 0)" stroke-linecap="square" stroke-width="3.0"/>
   <text fill="rgb(0, 0, 0)" font-family="SansSerif" font-size="12" x="888.0" y="60.0">Q</text>
   <ellipse cx="911.0" cy="56.0" fill="rgb(0, 0, 0)" rx="2.0" ry="2.0" stroke="none" stroke-width="3.0"/>
   <ellipse cx="906.0" cy="96.0" fill="none" rx="5.0" ry="5.0" stroke="rgb(0, 0, 0)" stroke-width="2.0"/>
   <ellipse cx="911.0" cy="96.0" fill="rgb(0, 0, 0)" rx="2.0" ry="2.0" stroke="none" stroke-width="2.0"/>
   <polygon fill="rgb(178, 178, 178)" points="41,206 58,206 61,209 61,226 44,226 41,223" stroke="none" stroke-linecap="square" stroke-width="1.0"/>
   <rect fill="rgb(255, 255, 255)" height="17" stroke="none" stroke-linecap="square" stroke-width="1.0" width="17" x="41" y="206"/>
   <polyline fill="none" points="41,206 57,206" stroke="rgb(0, 0, 0)" stroke-linecap="square" stroke-width="1.0"/>
   <polyline fill="none" points="58,206 58,222" stroke="rgb(0, 0, 0)" stroke-linecap="square" stroke-width="1.0"/>
   <polyline fill="none" points="41,223 41,207" stroke="rgb(0, 0, 0)" stroke-linecap="square" stroke-width="1.0"/>
   <polyline fill="none" points="42,223 58,223 61,226" stroke="rgb(0, 0, 0)" stroke-linecap="square" stroke-width="1.0"/>
   <polygon fill="none" points="41,206 58,206 61,209 61,226 44,226 41,223" stroke="rgb(0, 0, 0)" stroke-linecap="square" stroke-width="1.0"/>
   <text fill="rgb(0, 0, 0)" font-family="SansSerif" font-size="16" font-weight="bold" x="5.0" y="223.0">CLR</text>
   <ellipse cx="61.0" cy="216.0" fill="rgb(0, 0, 0)" rx="2.0" ry="2.0" stroke="none" stroke-width="1.0"/>
   <polyline fill="none" points="43,48 60,48" stroke="rgb(0, 0, 0)" stroke-linecap="square" stroke-width="2.0"/>
   <polyline fill="none" points="61,48 61,65" stroke="rgb(0, 0, 0)" stroke-linecap="square" stroke-width="2.0"/>
   <polyline fill="none" points="61,66 44,66" stroke="rgb(0, 0, 0)" stroke-linecap="square" stroke-width="2.0"/>
   <polyline fill="none" points="43,66 43,49" stroke="rgb(0, 0, 0)" stroke-linecap="square" stroke-width="2.0"/>
   <text fill="rgb(0, 0, 0)" font-family="SansSerif" font-size="12" x="44.0" y="62.0">x1</text>
   <text fill="rgb(0, 0, 0)" font-family="SansSerif" font-size="16" font-weight="bold" x="26.0" y="63.0">D</text>
   <ellipse cx="61.0" cy="56.0" fill="rgb(0, 0, 0)" rx="2.0" ry="2.0" stroke="none" stroke-width="2.0"/>
   <ellipse cx="121.0" cy="106.0" fill="none" rx="9.0" ry="9.0" stroke="rgb(0, 0, 0)" stroke-width="2.0"/>
   <text fill="rgb(0, 0, 0)" font-family="SansSerif" font-size="16" font-weight="bold" x="133.0" y="113.0">CPLED</text>
   <ellipse cx="111.0" cy="106.0" fill="rgb(0, 0, 0)" rx="2.0" ry="2.0" stroke="none" stroke-width="1.0"/>
   <text fill="rgb(0, 0, 0)" font-family="SansSerif" font-size="16" font-weight="bold" x="43.0" y="253.0">9 Bit Serial In Parallel Out Shift Register</text>
   <ellipse cx="1291.0" cy="26.0" fill="none" rx="9.0" ry="9.0" stroke="rgb(0, 0, 0)" stroke-width="2.0"/>
   <text fill="rgb(0, 0, 0)" font-family="SansSerif" font-size="16" font-weight="bold" x="1303.0" y="33.0">QI</text>
   <ellipse cx="1291.0" cy="36.0" fill="rgb(0, 0, 0)" rx="2.0" ry="2.0" stroke="none" stroke-width="1.0"/>
   <text fill="rgb(0, 0, 0)" font-family="SansSerif" font-size="16" font-weight="bold" x="1230.0" y="36.0">LSB</text>
   <ellipse cx="1161.0" cy="26.0" fill="none" rx="9.0" ry="9.0" stroke="rgb(0, 0, 0)" stroke-width="2.0"/>
   <text fill="rgb(0, 0, 0)" font-family="SansSerif" font-size="16" font-weight="bold" x="1173.0" y="33.0">QH</text>
   <ellipse cx="1161.0" cy="36.0" fill="rgb(0, 0, 0)" rx="2.0" ry="2.0" stroke="none" stroke-width="1.0"/>
   <ellipse cx="1051.0" cy="26.0" fill="none" rx="9.0" ry="9.0" stroke="rgb(0, 0, 0)" stroke-width="2.0"/>
   <text fill="rgb(0, 0, 0)" font-family="SansSerif" font-size="16" font-weight="bold" x="1063.0" y="33.0">QG</text>
   <ellipse cx="1051.0" cy="36.0" fill="rgb(0, 0, 0)" rx="2.0" ry="2.0" stroke="none" stroke-width="1.0"/>
   <ellipse cx="951.0" cy="26.0" fill="none" rx="9.0" ry="9.0" stroke="rgb(0, 0, 0)" stroke-width="2.0"/>
   <text fill="rgb(0, 0, 0)" font-family="SansSerif" font-size="16" font-weight="bold" x="963.0" y="33.0">QF</text>
   <ellipse cx="951.0" cy="36.0" fill="rgb(0, 0, 0)" rx="2.0" ry="2.0" stroke="none" stroke-width="1.0"/>
   <ellipse cx="831.0" cy="26.0" fill="none" rx="9.0" ry="9.0" stroke="rgb(0, 0, 0)" stroke-width="2.0"/>
   <text fill="rgb(0, 0, 0)" font-family="SansSerif" font-size="16" font-weight="bold" x="843.0" y="33.0">QE</text>
   <ellipse cx="831.0" cy="36.0" fill="rgb(0, 0, 0)" rx="2.0" ry="2.0" stroke="none" stroke-width="1.0"/>
   <ellipse cx="711.0" cy="26.0" fill="none" rx="9.0" ry="9.0" stroke="rgb(0, 0, 0)" stroke-width="2.0"/>
   <text fill="rgb(0, 0, 0)" font-family="SansSerif" font-size="16" font-weight="bold" x="723.0" y="33.0">QD</text>
   <ellipse cx="711.0" cy="36.0" fill="rgb(0, 0, 0)" rx="2.0" ry="2.0" stroke="none" stroke-width="1.0"/>
   <ellipse cx="591.0" cy="26.0" fill="none" rx="9.0" ry="9.0" stroke="rgb(0, 0, 0)" stroke-width="2.0"/>
   <text fill="rgb(0, 0, 0)" font-family="SansSerif" font-size="16" font-weight="bold" x="603.0" y="33.0">QC</text>
   <ellipse cx="591.0" cy="36.0" fill="rgb(0, 0, 0)" rx="2.0" ry="2.0" stroke="none" stroke-width="1.0"/>
   <ellipse cx="471.0" cy="26.0" fill="none" rx="9.0" ry="9.0" stroke="rgb(0, 0, 0)" stroke-width="2.0"/>
   <text fill="rgb(0, 0, 0)" font-family="SansSerif" font-size="16" font-weight="bold" x="483.0" y="33.0">QB</text>
   <ellipse cx="471.0" cy="36.0" fill="rgb(0, 0, 0)" rx="2.0" ry="2.0" stroke="none" stroke-width="1.0"/>
   <ellipse cx="341.0" cy="26.0" fill="none" rx="9.0" ry="9.0" stroke="rgb(0, 0, 0)" stroke-width="2.0"/>
   <text fill="rgb(0, 0, 0)" font-family="SansSerif" font-size="16" font-weight="bold" x="353.0" y="33.0">QA</text>
   <ellipse cx="341.0" cy="36.0" fill="rgb(0, 0, 0)" rx="2.0" ry="2.0" stroke="none" stroke-width="1.0"/>
   <text fill="rgb(0, 0, 0)" font-family="SansSerif" font-size="16" font-weight="bold" x="96.0" y="44.0">MSB</text>
   <text fill="rgb(0, 0, 0)" font-family="SansSerif" font-size="16" font-weight="bold" x="44.0" y="24.0">Data Keluar Parallel</text>
</svg>
